<svg xmlns="http://www.w3.org/2000/svg" width="24" height="24" viewBox="0 0 24 24"><g><g><g/><g/><g opacity=".3"><path fill="#99efd0" d="M14 11.47a5.98 5.98 0 0 0 3 1.445v7.583a1.5 1.5 0 0 1-3 0z"/></g><g opacity=".3"><path fill="#99efd0" d="M7 12.915a5.98 5.98 0 0 0 3-1.445v9.028a1.5 1.5 0 0 1-3 0z"/></g><g><path fill="#99efd0" d="M13 7a5 5 0 1 1 10 0 5 5 0 0 1-10 0zm1.75 1h.5a.75.75 0 0 0 0-1.5h-.5a.75.75 0 0 0 0 1.5zM21 5a1 1 0 0 0-1 1v2a1 1 0 0 0 2 0V6a1 1 0 0 0-1-1z"/></g><g><path fill="#99efd0" d="M1 7a5 5 0 1 1 10 0A5 5 0 0 1 1 7zm7.75 1h.5a.75.75 0 0 0 0-1.5h-.5a.75.75 0 0 0 0 1.5zM3 5a1 1 0 0 0-1 1v2a1 1 0 0 0 2 0V6a1 1 0 0 0-1-1z"/></g></g></g></svg>