<svg xmlns="http://www.w3.org/2000/svg" width="36" height="36"><path fill="#99efd0" d="M8.968 30.702A16.466 16.466 0 013 18 16.47 16.47 0 018.953 5.31l1.919 2.306A13.466 13.466 0 006 18c0 4.07 1.81 7.843 4.884 10.394zm16.148-2.309A13.467 13.467 0 0030 18c0-4.066-1.806-7.833-4.872-10.384l1.919-2.306A16.466 16.466 0 0133 18c0 4.973-2.215 9.587-5.968 12.702zm-3.848-4.603A7.48 7.48 0 0024 18a7.48 7.48 0 00-2.716-5.777L23.2 9.914A10.48 10.48 0 0127 18a10.48 10.48 0 01-3.824 8.104zm-8.444 2.314A10.48 10.48 0 019 18a10.48 10.48 0 013.8-8.086l1.916 2.31A7.48 7.48 0 0012 18a7.48 7.48 0 002.732 5.79z" opacity=".3"/><path fill="#99efd0" d="M18 21a3 3 0 100-6 3 3 0 000 6z"/></svg>