<svg xmlns="http://www.w3.org/2000/svg" width="40" height="40"><path fill="#f6f6f6" d="M20 40c11.046 0 20-8.954 20-20S31.046 0 20 0 0 8.954 0 20s8.954 20 20 20z" opacity=".1"/><path fill="#fff" d="M26.393 19.302h-5.766c0 .6 0 1.8-.004 2.399h3.341c-.128.6-.582 1.44-1.223 1.862 0 0-.001.004-.002.003-.853.563-1.979.69-2.814.523a3.71 3.71 0 01-2.768-2.417c.003-.002.005-.018.007-.02-.264-.748-.264-1.75 0-2.35h-.001c.34-1.102 1.407-2.107 2.719-2.383 1.055-.223 2.245.019 3.12.838.117-.114 1.612-1.574 1.724-1.692-2.991-2.709-7.78-1.756-9.572 1.742l-.004.006a5.86 5.86 0 00.007 5.379l-.007.005a6.108 6.108 0 003.888 3.099c1.807.473 4.106.15 5.646-1.243l.002.001c1.305-1.175 2.117-3.177 1.707-5.752"/></svg>