<svg xmlns="http://www.w3.org/2000/svg" width="24" height="24"><path fill="#99efd0" d="M14 11.47a5.98 5.98 0 003 1.445v7.583a1.5 1.5 0 01-3 0zm-7 1.445a5.98 5.98 0 003-1.445v9.028a1.5 1.5 0 01-3 0z" opacity=".3"/><path fill="#99efd0" d="M13 7a5 5 0 1110 0 5 5 0 01-10 0zm1.75 1h.5a.75.75 0 000-1.5h-.5a.75.75 0 000 1.5zM21 5a1 1 0 00-1 1v2a1 1 0 002 0V6a1 1 0 00-1-1zM1 7a5 5 0 1110 0A5 5 0 011 7zm7.75 1h.5a.75.75 0 000-1.5h-.5a.75.75 0 000 1.5zM3 5a1 1 0 00-1 1v2a1 1 0 002 0V6a1 1 0 00-1-1z"/></svg>