<svg xmlns="http://www.w3.org/2000/svg" width="24" height="24"><path fill="#99efd0" d="M5.979 20.468A10.977 10.977 0 012 12c0-3.311 1.473-6.383 3.969-8.46l1.279 1.537A8.978 8.978 0 004 12a8.978 8.978 0 003.256 6.929zm10.765-1.539A8.978 8.978 0 0020 11.999a8.977 8.977 0 00-3.248-6.922l1.28-1.537A10.977 10.977 0 0122 12c0 3.315-1.477 6.391-3.979 8.468zm-2.566-3.07A4.987 4.987 0 0016 12a4.987 4.987 0 00-1.81-3.85l1.276-1.54A6.986 6.986 0 0118 12a6.986 6.986 0 01-2.55 5.404zM8.55 17.404A6.987 6.987 0 016 12c0-2.11.94-4.07 2.534-5.39L9.81 8.148A4.987 4.987 0 008 11.999c0 1.515.675 2.916 1.821 3.86z" opacity=".3"/><path fill="#99efd0" d="M12 14a2 2 0 100-4 2 2 0 000 4z"/></svg>