<svg xmlns="http://www.w3.org/2000/svg" width="645" height="557"><defs><linearGradient id="a" x1="51.7" x2="51.7" y1=".65" y2="3.32" gradientUnits="userSpaceOnUse"><stop offset="0" stop-color="#a4ffff"/><stop offset="1" stop-color="#abb7e3" stop-opacity="0"/></linearGradient><linearGradient id="b" x1="109.55" x2="109.55" y1="2.77" y2="5.42" gradientUnits="userSpaceOnUse"><stop offset="0" stop-color="#a4ffff"/><stop offset="1" stop-color="#abb7e3" stop-opacity="0"/></linearGradient><linearGradient id="c" x1="31.89" x2="31.89" y1="7.39" y2="10.01" gradientUnits="userSpaceOnUse"><stop offset="0" stop-color="#a4ffff"/><stop offset="1" stop-color="#abb7e3" stop-opacity="0"/></linearGradient><linearGradient id="d" x1="18.08" x2="18.08" y1="9.99" y2="12.74" gradientUnits="userSpaceOnUse"><stop offset="0" stop-color="#a4ffff"/><stop offset="1" stop-color="#abb7e3" stop-opacity="0"/></linearGradient><linearGradient id="e" x1="223.37" x2="223.37" y1="11.43" y2="13.93" gradientUnits="userSpaceOnUse"><stop offset="0" stop-color="#a4ffff"/><stop offset="1" stop-color="#abb7e3" stop-opacity="0"/></linearGradient><linearGradient id="f" x1="188.85" x2="188.85" y1="18.08" y2="20.6" gradientUnits="userSpaceOnUse"><stop offset="0" stop-color="#a4ffff"/><stop offset="1" stop-color="#abb7e3" stop-opacity="0"/></linearGradient><linearGradient id="g" x1="123.42" x2="123.42" y1="20.2" y2="37.92" gradientUnits="userSpaceOnUse"><stop offset="0" stop-color="#a4ffff"/><stop offset="1" stop-color="#abb7e3" stop-opacity="0"/></linearGradient><linearGradient id="h" x1="86.13" x2="86.13" y1="20.93" y2="23.73" gradientUnits="userSpaceOnUse"><stop offset="0" stop-color="#a4ffff"/><stop offset="1" stop-color="#abb7e3" stop-opacity="0"/></linearGradient><linearGradient id="i" x1="249.48" x2="249.48" y1="27.04" y2="33.75" gradientUnits="userSpaceOnUse"><stop offset="0" stop-color="#a4ffff"/><stop offset="1" stop-color="#abb7e3" stop-opacity="0"/></linearGradient><linearGradient id="j" x1="199.65" x2="199.65" y1="32.67" y2="35.71" gradientUnits="userSpaceOnUse"><stop offset="0" stop-color="#a4ffff"/><stop offset="1" stop-color="#abb7e3" stop-opacity="0"/></linearGradient><linearGradient id="k" x1="82.25" x2="82.25" y1="38.53" y2="41.15" gradientUnits="userSpaceOnUse"><stop offset="0" stop-color="#a4ffff"/><stop offset="1" stop-color="#abb7e3" stop-opacity="0"/></linearGradient><linearGradient id="l" x1="219.85" x2="219.85" y1="39.11" y2="41.55" gradientUnits="userSpaceOnUse"><stop offset="0" stop-color="#a4ffff"/><stop offset="1" stop-color="#abb7e3" stop-opacity="0"/></linearGradient><linearGradient id="m" x1="22.87" x2="22.87" y1="45.17" y2="52.4" gradientUnits="userSpaceOnUse"><stop offset="0" stop-color="#a4ffff"/><stop offset="1" stop-color="#abb7e3" stop-opacity="0"/></linearGradient><linearGradient id="n" x1="172.37" x2="172.37" y1="51.04" y2="55.61" gradientUnits="userSpaceOnUse"><stop offset="0" stop-color="#a4ffff"/><stop offset="1" stop-color="#abb7e3" stop-opacity="0"/></linearGradient><linearGradient id="o" x1="309.75" x2="309.75" y1="51.43" y2="53.65" gradientUnits="userSpaceOnUse"><stop offset="0" stop-color="#a4ffff"/><stop offset="1" stop-color="#abb7e3" stop-opacity="0"/></linearGradient><linearGradient id="p" x1="212.34" x2="212.34" y1="51.78" y2="54.12" gradientUnits="userSpaceOnUse"><stop offset="0" stop-color="#a4ffff"/><stop offset="1" stop-color="#abb7e3" stop-opacity="0"/></linearGradient><linearGradient id="q" x1="393.57" x2="393.57" y1="56.64" y2="59.04" gradientUnits="userSpaceOnUse"><stop offset="0" stop-color="#a4ffff"/><stop offset="1" stop-color="#abb7e3" stop-opacity="0"/></linearGradient><linearGradient id="r" x1="362.5" x2="362.5" y1="58.3" y2="60.71" gradientUnits="userSpaceOnUse"><stop offset="0" stop-color="#a4ffff"/><stop offset="1" stop-color="#abb7e3" stop-opacity="0"/></linearGradient><linearGradient id="s" x1="163.18" x2="163.18" y1="59.84" y2="83.46" gradientUnits="userSpaceOnUse"><stop offset="0" stop-color="#a4ffff"/><stop offset="1" stop-color="#abb7e3" stop-opacity="0"/></linearGradient><linearGradient id="t" x1="205.98" x2="205.98" y1="61.9" y2="96.67" gradientUnits="userSpaceOnUse"><stop offset="0" stop-color="#a4ffff"/><stop offset="1" stop-color="#abb7e3" stop-opacity="0"/></linearGradient><linearGradient id="u" x1="244.83" x2="244.83" y1="63.01" y2="65.45" gradientUnits="userSpaceOnUse"><stop offset="0" stop-color="#a4ffff"/><stop offset="1" stop-color="#abb7e3" stop-opacity="0"/></linearGradient><linearGradient id="v" x1="321.09" x2="321.09" y1="65.94" y2="68.19" gradientUnits="userSpaceOnUse"><stop offset="0" stop-color="#a4ffff"/><stop offset="1" stop-color="#abb7e3" stop-opacity="0"/></linearGradient><linearGradient id="w" x1="87.27" x2="87.27" y1="68.32" y2="115.05" gradientUnits="userSpaceOnUse"><stop offset="0" stop-color="#a4ffff"/><stop offset="1" stop-color="#abb7e3" stop-opacity="0"/></linearGradient><linearGradient id="x" x1="69.2" x2="69.2" y1="69.66" y2="72.35" gradientUnits="userSpaceOnUse"><stop offset="0" stop-color="#a4ffff"/><stop offset="1" stop-color="#abb7e3" stop-opacity="0"/></linearGradient><linearGradient id="y" x1="374.99" x2="374.99" y1="70.47" y2="72.94" gradientUnits="userSpaceOnUse"><stop offset="0" stop-color="#a4ffff"/><stop offset="1" stop-color="#abb7e3" stop-opacity="0"/></linearGradient><linearGradient id="z" x1="134.01" x2="134.01" y1="72.16" y2="105.02" gradientUnits="userSpaceOnUse"><stop offset="0" stop-color="#a4ffff"/><stop offset="1" stop-color="#abb7e3" stop-opacity="0"/></linearGradient><linearGradient id="A" x1="181.3" x2="181.3" y1="72.62" y2="75.29" gradientUnits="userSpaceOnUse"><stop offset="0" stop-color="#a4ffff"/><stop offset="1" stop-color="#abb7e3" stop-opacity="0"/></linearGradient><linearGradient id="B" x1="34.22" x2="34.22" y1="72.43" y2="75.09" gradientUnits="userSpaceOnUse"><stop offset="0" stop-color="#a4ffff"/><stop offset="1" stop-color="#abb7e3" stop-opacity="0"/></linearGradient><linearGradient id="C" x1="30.44" x2="30.44" y1="74.61" y2="77.47" gradientUnits="userSpaceOnUse"><stop offset="0" stop-color="#a4ffff"/><stop offset="1" stop-color="#abb7e3" stop-opacity="0"/></linearGradient><linearGradient id="D" x1="160.75" x2="160.75" y1="81.79" y2="84.11" gradientUnits="userSpaceOnUse"><stop offset="0" stop-color="#a4ffff"/><stop offset="1" stop-color="#abb7e3" stop-opacity="0"/></linearGradient><linearGradient id="E" x1="232.25" x2="232.25" y1="86.33" y2="88.88" gradientUnits="userSpaceOnUse"><stop offset="0" stop-color="#a4ffff"/><stop offset="1" stop-color="#abb7e3" stop-opacity="0"/></linearGradient><linearGradient id="F" x1="420.68" x2="420.68" y1="103.14" y2="105.48" gradientUnits="userSpaceOnUse"><stop offset="0" stop-color="#a4ffff"/><stop offset="1" stop-color="#abb7e3" stop-opacity="0"/></linearGradient><linearGradient id="G" x1="352.95" x2="352.95" y1="104.05" y2="106.47" gradientUnits="userSpaceOnUse"><stop offset="0" stop-color="#a4ffff"/><stop offset="1" stop-color="#abb7e3" stop-opacity="0"/></linearGradient><linearGradient id="H" x1="197.26" x2="197.26" y1="108.33" y2="146.73" gradientUnits="userSpaceOnUse"><stop offset="0" stop-color="#a4ffff"/><stop offset="1" stop-color="#abb7e3" stop-opacity="0"/></linearGradient><linearGradient id="I" x1="132.54" x2="132.54" y1="110.7" y2="125.27" gradientUnits="userSpaceOnUse"><stop offset="0" stop-color="#a4ffff"/><stop offset="1" stop-color="#abb7e3" stop-opacity="0"/></linearGradient><linearGradient id="J" x1="241.61" x2="241.61" y1="113.64" y2="116.07" gradientUnits="userSpaceOnUse"><stop offset="0" stop-color="#a4ffff"/><stop offset="1" stop-color="#abb7e3" stop-opacity="0"/></linearGradient><linearGradient id="K" x1="265.17" x2="265.17" y1="126.53" y2="128.99" gradientUnits="userSpaceOnUse"><stop offset="0" stop-color="#a4ffff"/><stop offset="1" stop-color="#abb7e3" stop-opacity="0"/></linearGradient><linearGradient id="L" x1="155.22" x2="155.22" y1="132.46" y2="134.88" gradientUnits="userSpaceOnUse"><stop offset="0" stop-color="#a4ffff"/><stop offset="1" stop-color="#abb7e3" stop-opacity="0"/></linearGradient><linearGradient id="M" x1="17.26" x2="17.26" y1="137.18" y2="210.58" gradientUnits="userSpaceOnUse"><stop offset="0" stop-color="#a4ffff"/><stop offset="1" stop-color="#abb7e3" stop-opacity="0"/></linearGradient><linearGradient id="N" x1="211.82" x2="211.82" y1="143.61" y2="146.09" gradientUnits="userSpaceOnUse"><stop offset="0" stop-color="#a4ffff"/><stop offset="1" stop-color="#abb7e3" stop-opacity="0"/></linearGradient><linearGradient id="O" x1="277.36" x2="277.36" y1="147.54" y2="150.38" gradientUnits="userSpaceOnUse"><stop offset="0" stop-color="#a4ffff"/><stop offset="1" stop-color="#abb7e3" stop-opacity="0"/></linearGradient><linearGradient id="P" x1="29.63" x2="29.63" y1="150" y2="197.15" gradientUnits="userSpaceOnUse"><stop offset="0" stop-color="#a4ffff"/><stop offset="1" stop-color="#abb7e3" stop-opacity="0"/></linearGradient><linearGradient id="Q" x1="284.81" x2="284.81" y1="161.64" y2="164.28" gradientUnits="userSpaceOnUse"><stop offset="0" stop-color="#a4ffff"/><stop offset="1" stop-color="#abb7e3" stop-opacity="0"/></linearGradient><linearGradient id="R" x1="80.02" x2="80.02" y1="171.37" y2="211.84" gradientUnits="userSpaceOnUse"><stop offset="0" stop-color="#a4ffff"/><stop offset="1" stop-color="#abb7e3" stop-opacity="0"/></linearGradient><linearGradient id="S" x1="115.87" x2="115.87" y1="176" y2="178.55" gradientUnits="userSpaceOnUse"><stop offset="0" stop-color="#a4ffff"/><stop offset="1" stop-color="#abb7e3" stop-opacity="0"/></linearGradient><linearGradient id="T" x1="242.73" x2="242.73" y1="178.11" y2="187.34" gradientUnits="userSpaceOnUse"><stop offset="0" stop-color="#a4ffff"/><stop offset="1" stop-color="#abb7e3" stop-opacity="0"/></linearGradient><linearGradient id="U" x1="280.99" x2="280.99" y1="188.31" y2="217.09" gradientUnits="userSpaceOnUse"><stop offset="0" stop-color="#a4ffff"/><stop offset="1" stop-color="#abb7e3" stop-opacity="0"/></linearGradient><linearGradient id="V" x1="352.74" x2="352.74" y1="192.74" y2="195.5" gradientUnits="userSpaceOnUse"><stop offset="0" stop-color="#a4ffff"/><stop offset="1" stop-color="#abb7e3" stop-opacity="0"/></linearGradient><linearGradient id="W" x1="26.92" x2="26.92" y1="193.45" y2="204.45" gradientUnits="userSpaceOnUse"><stop offset="0" stop-color="#a4ffff"/><stop offset="1" stop-color="#abb7e3" stop-opacity="0"/></linearGradient><linearGradient id="X" x1="325.35" x2="325.35" y1="198.24" y2="200.81" gradientUnits="userSpaceOnUse"><stop offset="0" stop-color="#a4ffff"/><stop offset="1" stop-color="#abb7e3" stop-opacity="0"/></linearGradient><linearGradient id="Y" x1="306.26" x2="306.26" y1="200.18" y2="237.16" gradientUnits="userSpaceOnUse"><stop offset="0" stop-color="#a4ffff"/><stop offset="1" stop-color="#abb7e3" stop-opacity="0"/></linearGradient><linearGradient id="Z" x1="10.21" x2="10.21" y1="224.3" y2="235.19" gradientUnits="userSpaceOnUse"><stop offset="0" stop-color="#a4ffff"/><stop offset="1" stop-color="#abb7e3" stop-opacity="0"/></linearGradient><linearGradient id="aa" x1="293.8" x2="293.8" y1="229.29" y2="279.47" gradientUnits="userSpaceOnUse"><stop offset="0" stop-color="#a4ffff"/><stop offset="1" stop-color="#abb7e3" stop-opacity="0"/></linearGradient><linearGradient id="ab" x1="94.21" x2="94.21" y1="237.02" y2="239.79" gradientUnits="userSpaceOnUse"><stop offset="0" stop-color="#a4ffff"/><stop offset="1" stop-color="#abb7e3" stop-opacity="0"/></linearGradient><linearGradient id="ac" x1="362.61" x2="362.61" y1="240.1" y2="242.78" gradientUnits="userSpaceOnUse"><stop offset="0" stop-color="#a4ffff"/><stop offset="1" stop-color="#abb7e3" stop-opacity="0"/></linearGradient><linearGradient id="ad" x1="256.71" x2="256.71" y1="241.99" y2="244.65" gradientUnits="userSpaceOnUse"><stop offset="0" stop-color="#a4ffff"/><stop offset="1" stop-color="#abb7e3" stop-opacity="0"/></linearGradient><linearGradient id="ae" x1="108.01" x2="108.01" y1="243.24" y2="246.14" gradientUnits="userSpaceOnUse"><stop offset="0" stop-color="#a4ffff"/><stop offset="1" stop-color="#abb7e3" stop-opacity="0"/></linearGradient><linearGradient id="af" x1="247.42" x2="247.42" y1="243.83" y2="246.28" gradientUnits="userSpaceOnUse"><stop offset="0" stop-color="#a4ffff"/><stop offset="1" stop-color="#abb7e3" stop-opacity="0"/></linearGradient><linearGradient id="ag" x1="289.01" x2="289.01" y1="244.27" y2="246.87" gradientUnits="userSpaceOnUse"><stop offset="0" stop-color="#a4ffff"/><stop offset="1" stop-color="#abb7e3" stop-opacity="0"/></linearGradient><linearGradient id="ah" x1="326.13" x2="326.13" y1="254.53" y2="257.5" gradientUnits="userSpaceOnUse"><stop offset="0" stop-color="#a4ffff"/><stop offset="1" stop-color="#abb7e3" stop-opacity="0"/></linearGradient><linearGradient id="ai" x1="364.78" x2="364.78" y1="274.01" y2="276.96" gradientUnits="userSpaceOnUse"><stop offset="0" stop-color="#a4ffff"/><stop offset="1" stop-color="#abb7e3" stop-opacity="0"/></linearGradient><linearGradient id="aj" x1="219.27" x2="219.27" y1="276.03" y2="326.55" gradientUnits="userSpaceOnUse"><stop offset="0" stop-color="#a4ffff"/><stop offset="1" stop-color="#abb7e3" stop-opacity="0"/></linearGradient><linearGradient id="ak" x1="324.66" x2="324.66" y1="277.4" y2="279.87" gradientUnits="userSpaceOnUse"><stop offset="0" stop-color="#a4ffff"/><stop offset="1" stop-color="#abb7e3" stop-opacity="0"/></linearGradient><linearGradient id="al" x1="146.62" x2="146.62" y1="277.45" y2="280.07" gradientUnits="userSpaceOnUse"><stop offset="0" stop-color="#a4ffff"/><stop offset="1" stop-color="#abb7e3" stop-opacity="0"/></linearGradient><linearGradient id="am" x1="236.92" x2="236.92" y1="288.64" y2="291.05" gradientUnits="userSpaceOnUse"><stop offset="0" stop-color="#a4ffff"/><stop offset="1" stop-color="#abb7e3" stop-opacity="0"/></linearGradient><linearGradient id="an" x1="332.78" x2="332.78" y1="290.26" y2="293.03" gradientUnits="userSpaceOnUse"><stop offset="0" stop-color="#a4ffff"/><stop offset="1" stop-color="#abb7e3" stop-opacity="0"/></linearGradient><linearGradient id="ao" x1="392.14" x2="392.14" y1="295" y2="297.69" gradientUnits="userSpaceOnUse"><stop offset="0" stop-color="#a4ffff"/><stop offset="1" stop-color="#abb7e3" stop-opacity="0"/></linearGradient><linearGradient id="ap" x1="157.19" x2="157.19" y1="304.38" y2="306.85" gradientUnits="userSpaceOnUse"><stop offset="0" stop-color="#a4ffff"/><stop offset="1" stop-color="#abb7e3" stop-opacity="0"/></linearGradient><linearGradient id="aq" x1="376.95" x2="376.95" y1="313.83" y2="316.89" gradientUnits="userSpaceOnUse"><stop offset="0" stop-color="#a4ffff"/><stop offset="1" stop-color="#abb7e3" stop-opacity="0"/></linearGradient><linearGradient id="ar" x1="157.09" x2="157.09" y1="315.11" y2="321.6" gradientUnits="userSpaceOnUse"><stop offset="0" stop-color="#a4ffff"/><stop offset="1" stop-color="#abb7e3" stop-opacity="0"/></linearGradient><linearGradient id="as" x1="227.02" x2="227.02" y1="316.53" y2="319.28" gradientUnits="userSpaceOnUse"><stop offset="0" stop-color="#a4ffff"/><stop offset="1" stop-color="#abb7e3" stop-opacity="0"/></linearGradient><linearGradient id="at" x1="181.32" x2="181.32" y1="317.2" y2="319.6" gradientUnits="userSpaceOnUse"><stop offset="0" stop-color="#a4ffff"/><stop offset="1" stop-color="#abb7e3" stop-opacity="0"/></linearGradient><linearGradient id="au" x1="346.56" x2="346.56" y1="326.42" y2="329.32" gradientUnits="userSpaceOnUse"><stop offset="0" stop-color="#a4ffff"/><stop offset="1" stop-color="#abb7e3" stop-opacity="0"/></linearGradient><linearGradient id="av" x1="350.33" x2="350.33" y1="327" y2="329.67" gradientUnits="userSpaceOnUse"><stop offset="0" stop-color="#a4ffff"/><stop offset="1" stop-color="#abb7e3" stop-opacity="0"/></linearGradient><linearGradient id="aw" x1="474.23" x2="474.23" y1="327.48" y2="330.18" gradientUnits="userSpaceOnUse"><stop offset="0" stop-color="#a4ffff"/><stop offset="1" stop-color="#abb7e3" stop-opacity="0"/></linearGradient><linearGradient id="ax" x1="439.08" x2="439.08" y1="329.37" y2="332.12" gradientUnits="userSpaceOnUse"><stop offset="0" stop-color="#a4ffff"/><stop offset="1" stop-color="#abb7e3" stop-opacity="0"/></linearGradient><linearGradient id="ay" x1="235.38" x2="235.38" y1="331.49" y2="353.91" gradientUnits="userSpaceOnUse"><stop offset="0" stop-color="#a4ffff"/><stop offset="1" stop-color="#abb7e3" stop-opacity="0"/></linearGradient><linearGradient id="az" x1="217.82" x2="217.82" y1="346.5" y2="348.96" gradientUnits="userSpaceOnUse"><stop offset="0" stop-color="#a4ffff"/><stop offset="1" stop-color="#abb7e3" stop-opacity="0"/></linearGradient><linearGradient id="aA" x1="179.48" x2="179.48" y1="367.95" y2="370.59" gradientUnits="userSpaceOnUse"><stop offset="0" stop-color="#a4ffff"/><stop offset="1" stop-color="#abb7e3" stop-opacity="0"/></linearGradient><linearGradient id="aB" x1="499.4" x2="499.4" y1="369.43" y2="372.11" gradientUnits="userSpaceOnUse"><stop offset="0" stop-color="#a4ffff"/><stop offset="1" stop-color="#abb7e3" stop-opacity="0"/></linearGradient><linearGradient id="aC" x1="440.78" x2="440.78" y1="369.66" y2="372.6" gradientUnits="userSpaceOnUse"><stop offset="0" stop-color="#a4ffff"/><stop offset="1" stop-color="#abb7e3" stop-opacity="0"/></linearGradient><linearGradient id="aD" x1="317.85" x2="317.85" y1="377.95" y2="383.36" gradientUnits="userSpaceOnUse"><stop offset="0" stop-color="#a4ffff"/><stop offset="1" stop-color="#abb7e3" stop-opacity="0"/></linearGradient><linearGradient id="aE" x1="371.7" x2="371.7" y1="384.64" y2="407.06" gradientUnits="userSpaceOnUse"><stop offset="0" stop-color="#a4ffff"/><stop offset="1" stop-color="#abb7e3" stop-opacity="0"/></linearGradient><linearGradient id="aF" x1="505.95" x2="505.95" y1="388.49" y2="404.05" gradientUnits="userSpaceOnUse"><stop offset="0" stop-color="#a4ffff"/><stop offset="1" stop-color="#abb7e3" stop-opacity="0"/></linearGradient><linearGradient id="aG" x1="304.95" x2="304.95" y1="392.52" y2="395.06" gradientUnits="userSpaceOnUse"><stop offset="0" stop-color="#a4ffff"/><stop offset="1" stop-color="#abb7e3" stop-opacity="0"/></linearGradient><linearGradient id="aH" x1="368.27" x2="368.27" y1="404.67" y2="407.37" gradientUnits="userSpaceOnUse"><stop offset="0" stop-color="#a4ffff"/><stop offset="1" stop-color="#abb7e3" stop-opacity="0"/></linearGradient><linearGradient id="aI" x1="299.71" x2="299.71" y1="404.91" y2="407.55" gradientUnits="userSpaceOnUse"><stop offset="0" stop-color="#a4ffff"/><stop offset="1" stop-color="#abb7e3" stop-opacity="0"/></linearGradient><linearGradient id="aJ" x1="546.5" x2="546.5" y1="411.69" y2="416.78" gradientUnits="userSpaceOnUse"><stop offset="0" stop-color="#a4ffff"/><stop offset="1" stop-color="#abb7e3" stop-opacity="0"/></linearGradient><linearGradient id="aK" x1="346.79" x2="346.79" y1="417.04" y2="419.49" gradientUnits="userSpaceOnUse"><stop offset="0" stop-color="#a4ffff"/><stop offset="1" stop-color="#abb7e3" stop-opacity="0"/></linearGradient><linearGradient id="aL" x1="310.68" x2="310.68" y1="444.62" y2="451.05" gradientUnits="userSpaceOnUse"><stop offset="0" stop-color="#a4ffff"/><stop offset="1" stop-color="#abb7e3" stop-opacity="0"/></linearGradient><linearGradient id="aM" x1="580.23" x2="580.23" y1="456.86" y2="463.42" gradientUnits="userSpaceOnUse"><stop offset="0" stop-color="#a4ffff"/><stop offset="1" stop-color="#abb7e3" stop-opacity="0"/></linearGradient><linearGradient id="aN" x1="287.26" x2="287.26" y1="465.56" y2="468.22" gradientUnits="userSpaceOnUse"><stop offset="0" stop-color="#a4ffff"/><stop offset="1" stop-color="#abb7e3" stop-opacity="0"/></linearGradient><linearGradient id="aO" x1="638.65" x2="638.65" y1="472.31" y2="484.45" gradientUnits="userSpaceOnUse"><stop offset="0" stop-color="#a4ffff"/><stop offset="1" stop-color="#abb7e3" stop-opacity="0"/></linearGradient><linearGradient id="aP" x1="564.54" x2="564.54" y1="493.13" y2="495.74" gradientUnits="userSpaceOnUse"><stop offset="0" stop-color="#a4ffff"/><stop offset="1" stop-color="#abb7e3" stop-opacity="0"/></linearGradient><linearGradient id="aQ" x1="583.34" x2="583.34" y1="493.37" y2="519.84" gradientUnits="userSpaceOnUse"><stop offset="0" stop-color="#a4ffff"/><stop offset="1" stop-color="#abb7e3" stop-opacity="0"/></linearGradient><linearGradient id="aR" x1="582.94" x2="582.94" y1="551.29" y2="557.39" gradientUnits="userSpaceOnUse"><stop offset="0" stop-color="#a4ffff"/><stop offset="1" stop-color="#abb7e3" stop-opacity="0"/></linearGradient></defs><path fill="url(#a)" d="M52.004.687c-1.045-.253-2.046.974-1.497 1.932.426.844 1.74.966 2.263.165.618-.722.121-1.888-.766-2.097z"/><path fill="none" stroke="#000" stroke-miterlimit="20" stroke-width=".08" d="M52.004.687c-1.045-.253-2.046.974-1.497 1.932.426.844 1.74.966 2.263.165.618-.722.121-1.888-.766-2.097z"/><path fill="url(#b)" d="M109.929 2.845c-.914-.348-1.915.575-1.663 1.523.105 1.132 1.828 1.437 2.385.488.514-.688.104-1.784-.722-2.01z"/><path fill="none" stroke="#000" stroke-miterlimit="20" stroke-width=".08" d="M109.929 2.845c-.914-.348-1.915.575-1.663 1.523.105 1.132 1.828 1.437 2.385.488.514-.688.104-1.784-.722-2.01z"/><path fill="url(#c)" d="M32.263 7.45c-.844-.288-1.793.522-1.628 1.41.01.957 1.262 1.48 1.994.922.879-.548.644-2.071-.366-2.332z"/><path fill="none" stroke="#000" stroke-miterlimit="20" stroke-width=".08" d="M32.263 7.45c-.844-.288-1.793.522-1.628 1.41.01.957 1.262 1.48 1.994.922.879-.548.644-2.071-.366-2.332z"/><path fill="url(#d)" d="M18.763 10.2c-.844-.6-2.15.174-2.037 1.21-.052 1.114 1.454 1.758 2.237.992.74-.557.592-1.758-.2-2.202z"/><path fill="none" stroke="#000" stroke-miterlimit="20" stroke-width=".08" d="M18.763 10.2c-.844-.6-2.15.174-2.037 1.21-.052 1.114 1.454 1.758 2.237.992.74-.557.592-1.758-.2-2.202z"/><path fill="url(#e)" d="M223.838 11.514c-.636-.243-1.454.087-1.637.766-.409 1.019.949 2.115 1.837 1.437.87-.47.73-1.89-.2-2.203z"/><path fill="none" stroke="#000" stroke-miterlimit="20" stroke-width=".08" d="M223.838 11.514c-.636-.243-1.454.087-1.637.766-.409 1.019.949 2.115 1.837 1.437.87-.47.73-1.89-.2-2.203z"/><path fill="url(#f)" d="M189.37 18.19c-.862-.426-1.959.427-1.767 1.367.113.923 1.323 1.349 2.045.81.731-.54.566-1.82-.278-2.177z"/><path fill="none" stroke="#000" stroke-miterlimit="20" stroke-width=".08" d="M189.37 18.19c-.862-.426-1.959.427-1.767 1.367.113.923 1.323 1.349 2.045.81.731-.54.566-1.82-.278-2.177z"/><path fill="url(#g)" d="M125.256 22.22c.383-.922-.383-2.089-1.41-2.019-.975-.087-1.758.966-1.488 1.889.104.513.557.818.949 1.105-.688 3.908-1.428 7.799-2.159 11.69-.705.104-1.47.557-1.54 1.34-.21 1.175 1.279 2.159 2.262 1.454.897-.531.827-1.82.148-2.498 1.106-1.941 2.142-3.926 3.264-5.858.697.122 1.489-.079 1.802-.766.583-1.027-.53-2.394-1.662-2.037-1.114.287-1.41 1.82-.54 2.542-1.044 2.028-2.21 3.986-3.299 5.988.688-3.925 1.463-7.834 2.194-11.75.609-.148 1.297-.418 1.48-1.08z"/><path fill="none" stroke="#000" stroke-miterlimit="20" stroke-width=".08" d="M125.256 22.22c.383-.922-.383-2.089-1.41-2.019-.975-.087-1.758.966-1.488 1.889.104.513.557.818.949 1.105-.688 3.908-1.428 7.799-2.159 11.69-.705.104-1.47.557-1.54 1.34-.21 1.175 1.279 2.159 2.262 1.454.897-.531.827-1.82.148-2.498 1.106-1.941 2.142-3.926 3.264-5.858.697.122 1.489-.079 1.802-.766.583-1.027-.53-2.394-1.662-2.037-1.114.287-1.41 1.82-.54 2.542-1.044 2.028-2.21 3.986-3.299 5.988.688-3.925 1.463-7.834 2.194-11.75.609-.148 1.297-.418 1.48-1.08z"/><path fill="url(#h)" d="M86.776 21.106c-.853-.53-2.054.253-2.02 1.227-.043.975 1.15 1.75 2.011 1.236.975-.443.975-2.028.009-2.463z"/><path fill="none" stroke="#000" stroke-miterlimit="20" stroke-width=".08" d="M86.776 21.106c-.853-.53-2.054.253-2.02 1.227-.043.975 1.15 1.75 2.011 1.236.975-.443.975-2.028.009-2.463z"/><path fill="url(#i)" d="M254.484 27.434c-.548-.714-1.688-.4-2.01.392.008.252.008.513 0 .774a595.535 595.535 0 00-6.163 3.247 15.083 15.083 0 00-.583-.461c-.731-.148-1.61.383-1.514 1.21-.044.626.53.983 1.044 1.157.818-.078 1.41-.81 1.236-1.628 2.01-1.122 4.073-2.132 6.075-3.272.34.165.636.47 1.027.444.923.07 1.558-1.21.888-1.863z"/><path fill="none" stroke="#000" stroke-miterlimit="20" stroke-width=".08" d="M254.484 27.434c-.548-.714-1.688-.4-2.01.392.008.252.008.513 0 .774a595.535 595.535 0 00-6.163 3.247 15.083 15.083 0 00-.583-.461c-.731-.148-1.61.383-1.514 1.21-.044.626.53.983 1.044 1.157.818-.078 1.41-.81 1.236-1.628 2.01-1.122 4.073-2.132 6.075-3.272.34.165.636.47 1.027.444.923.07 1.558-1.21.888-1.863z"/><path fill="url(#j)" d="M200.328 32.84c-.975-.567-2.306.339-2.176 1.444-.009 1.175 1.584 1.88 2.446 1.08.87-.61.705-2.107-.27-2.525z"/><path fill="none" stroke="#000" stroke-miterlimit="20" stroke-width=".08" d="M200.328 32.84c-.975-.567-2.306.339-2.176 1.444-.009 1.175 1.584 1.88 2.446 1.08.87-.61.705-2.107-.27-2.525z"/><path fill="url(#k)" d="M82.546 38.566c-.862-.235-1.81.627-1.602 1.515.13 1.027 1.628 1.453 2.28.635.723-.661.27-1.976-.678-2.15z"/><path fill="none" stroke="#000" stroke-miterlimit="20" stroke-width=".08" d="M82.546 38.566c-.862-.235-1.81.627-1.602 1.515.13 1.027 1.628 1.453 2.28.635.723-.661.27-1.976-.678-2.15z"/><path fill="url(#l)" d="M221.044 40.272c-.01-.652-.653-1.01-1.21-1.157a1.98 1.98 0 00-1.184.879c0 .2.009.592.009.783.287.305.54.723.992.749.731.148 1.497-.523 1.393-1.254z"/><path fill="none" stroke="#000" stroke-miterlimit="20" stroke-width=".08" d="M221.044 40.272c-.01-.652-.653-1.01-1.21-1.157a1.98 1.98 0 00-1.184.879c0 .2.009.592.009.783.287.305.54.723.992.749.731.148 1.497-.523 1.393-1.254z"/><path fill="url(#m)" d="M35.03 45.477c-.852-.748-2.27-.008-2.245 1.097-5.274 1.123-10.575 2.115-15.858 3.194-1.34.235-2.673.601-4.04.749-.417-.949-1.88-1.14-2.436-.226-.644.827.113 2.167 1.131 2.106.827.06 1.332-.74 1.437-1.462 6.606-1.297 13.195-2.638 19.801-3.943.366.426.775.992 1.419.896 1.218.07 1.75-1.723.792-2.41z"/><path fill="none" stroke="#000" stroke-miterlimit="20" stroke-width=".08" d="M35.03 45.477c-.852-.748-2.27-.008-2.245 1.097-5.274 1.123-10.575 2.115-15.858 3.194-1.34.235-2.673.601-4.04.749-.417-.949-1.88-1.14-2.436-.226-.644.827.113 2.167 1.131 2.106.827.06 1.332-.74 1.437-1.462 6.606-1.297 13.195-2.638 19.801-3.943.366.426.775.992 1.419.896 1.218.07 1.75-1.723.792-2.41z"/><path fill="url(#n)" d="M173.999 52.258c.095-1.027-1.376-1.645-2.046-.853-.522.426-.383 1.175-.07 1.688-.591.13-1.218.618-1.131 1.297-.044.94 1.227 1.602 1.958.984.618-.4.688-1.375.157-1.88.575-.13 1.193-.583 1.132-1.236z"/><path fill="none" stroke="#000" stroke-miterlimit="20" stroke-width=".08" d="M173.999 52.258c.095-1.027-1.376-1.645-2.046-.853-.522.426-.383 1.175-.07 1.688-.591.13-1.218.618-1.131 1.297-.044.94 1.227 1.602 1.958.984.618-.4.688-1.375.157-1.88.575-.13 1.193-.583 1.132-1.236z"/><path fill="url(#o)" d="M310.851 52.684c.122-.679-.548-1.349-1.227-1.244-.461.008-.705.452-.984.748.01.192.018.583.027.775.226.226.46.452.687.679.2 0 .592 0 .792.008.279-.278.705-.513.705-.966z"/><path fill="none" stroke="#000" stroke-miterlimit="20" stroke-width=".08" d="M310.851 52.684c.122-.679-.548-1.349-1.227-1.244-.461.008-.705.452-.984.748.01.192.018.583.027.775.226.226.46.452.687.679.2 0 .592 0 .792.008.279-.278.705-.513.705-.966z"/><path fill="url(#p)" d="M213.523 52.893c-.139-.888-1.262-1.514-1.975-.818-.732.574-.349 1.593.33 2.02.81.156 1.532-.401 1.645-1.202z"/><path fill="none" stroke="#000" stroke-miterlimit="20" stroke-width=".08" d="M213.523 52.893c-.139-.888-1.262-1.514-1.975-.818-.732.574-.349 1.593.33 2.02.81.156 1.532-.401 1.645-1.202z"/><path fill="url(#q)" d="M394.723 57.81c.06-.547-.392-.887-.775-1.174-.191 0-.583.009-.775.009-.365.304-.818.644-.765 1.192-.044.54.417.862.765 1.184.74.113 1.61-.375 1.55-1.21z"/><path fill="none" stroke="#000" stroke-miterlimit="20" stroke-width=".08" d="M394.723 57.81c.06-.547-.392-.887-.775-1.174-.191 0-.583.009-.775.009-.365.304-.818.644-.765 1.192-.044.54.417.862.765 1.184.74.113 1.61-.375 1.55-1.21z"/><path fill="url(#r)" d="M363.684 59.526c.061-.54-.409-.88-.757-1.202-.757-.139-1.645.366-1.619 1.21-.026.549.453.888.844 1.175.192 0 .575-.008.766-.017.366-.305.819-.644.766-1.166z"/><path fill="none" stroke="#000" stroke-miterlimit="20" stroke-width=".08" d="M363.684 59.526c.061-.54-.409-.88-.757-1.202-.757-.139-1.645.366-1.619 1.21-.026.549.453.888.844 1.175.192 0 .575-.008.766-.017.366-.305.819-.644.766-1.166z"/><path fill="url(#s)" d="M154.954 62.302c5.606 6.119 11.167 12.281 16.782 18.383.496-.105 1.053-.296 1.523-.009.748.374 1.07 1.428.557 2.124-.488.827-1.784.879-2.359.113-.453-.496-.348-1.21-.122-1.784-4.674-4.43-9.409-8.8-14.109-13.204-.722.4-1.776.383-2.228-.41-.479-.66-.218-1.566.391-2.045-.33-.914-.774-1.775-1.175-2.663-.844.078-1.862-.4-1.897-1.35-.183-1.183 1.401-2.132 2.315-1.305.723.479.714 1.454.322 2.15zm-.34.244c.366.905.793 1.775 1.185 2.655.557-.027 1.07.174 1.566.409-.896-1.045-1.854-2.028-2.75-3.064zm3.03 3.072c-.105.113-.218.235-.33.348.695.131.4 1.097.182 1.541 1.584 1.636 3.333 3.107 4.961 4.709 1.784 1.584 3.438 3.299 5.257 4.84-3.211-3.787-6.693-7.347-9.957-11.08z"/><path fill="none" stroke="#000" stroke-miterlimit="20" stroke-width=".08" d="M154.954 62.302c5.606 6.119 11.167 12.281 16.782 18.383.496-.105 1.053-.296 1.523-.009.748.374 1.07 1.428.557 2.124-.488.827-1.784.879-2.359.113-.453-.496-.348-1.21-.122-1.784-4.674-4.43-9.409-8.8-14.109-13.204-.722.4-1.776.383-2.228-.41-.479-.66-.218-1.566.391-2.045-.33-.914-.774-1.775-1.175-2.663-.844.078-1.862-.4-1.897-1.35-.183-1.183 1.401-2.132 2.315-1.305.723.479.714 1.454.322 2.15zm-.34.244c.366.905.793 1.775 1.185 2.655.557-.027 1.07.174 1.566.409-.896-1.045-1.854-2.028-2.75-3.064zm3.03 3.072c-.105.113-.218.235-.33.348.695.131.4 1.097.182 1.541 1.584 1.636 3.333 3.107 4.961 4.709 1.784 1.584 3.438 3.299 5.257 4.84-3.211-3.787-6.693-7.347-9.957-11.08z"/><path fill="url(#t)" d="M204.35 62.763c-.28-1.122-2.142-1.183-2.403-.017-.252.731.279 1.323.844 1.689-.966 6.414-1.793 12.847-2.768 19.262-.766.121-1.488.879-1.166 1.688.27.827 1.323 1.053 1.985.548a4907.15 4907.15 0 0110.122 8.835c-.217.583-.2 1.349.4 1.697.732.566 1.863-.122 1.82-1.01.052-.54-.418-.879-.766-1.2-.41.017-.827.043-1.184.278-3.42-2.898-6.745-5.893-10.123-8.835.27-.73.061-1.549-.67-1.897.07-1.61.418-3.194.61-4.796.687-4.857 1.383-9.714 2.08-14.562.783-.113 1.48-.861 1.218-1.68z"/><path fill="none" stroke="#000" stroke-miterlimit="20" stroke-width=".08" d="M204.35 62.763c-.28-1.122-2.142-1.183-2.403-.017-.252.731.279 1.323.844 1.689-.966 6.414-1.793 12.847-2.768 19.262-.766.121-1.488.879-1.166 1.688.27.827 1.323 1.053 1.985.548a4907.15 4907.15 0 0110.122 8.835c-.217.583-.2 1.349.4 1.697.732.566 1.863-.122 1.82-1.01.052-.54-.418-.879-.766-1.2-.41.017-.827.043-1.184.278-3.42-2.898-6.745-5.893-10.123-8.835.27-.73.061-1.549-.67-1.897.07-1.61.418-3.194.61-4.796.687-4.857 1.383-9.714 2.08-14.562.783-.113 1.48-.861 1.218-1.68z"/><path fill="url(#u)" d="M245.45 63.199c-.732-.523-1.872.13-1.828 1.027-.07.957 1.236 1.627 1.95.957.696-.479.591-1.584-.122-1.984z"/><path fill="none" stroke="#000" stroke-miterlimit="20" stroke-width=".08" d="M245.45 63.199c-.732-.523-1.872.13-1.828 1.027-.07.957 1.236 1.627 1.95.957.696-.479.591-1.584-.122-1.984z"/><path fill="url(#v)" d="M322.201 66.802c-.148-1.08-1.889-1.166-2.193-.148-.244.627.2 1.175.679 1.523.2 0 .592 0 .792.009.426-.33.896-.783.722-1.384z"/><path fill="none" stroke="#000" stroke-miterlimit="20" stroke-width=".08" d="M322.201 66.802c-.148-1.08-1.889-1.166-2.193-.148-.244.627.2 1.175.679 1.523.2 0 .592 0 .792.009.426-.33.896-.783.722-1.384z"/><path fill="url(#w)" d="M85.662 68.83c-.453-.653-1.497-.688-2.01-.07-.549.575-.349 1.637.365 1.976.348.105.714.14 1.053.21 3.464 7.258 6.902 14.535 10.427 21.768-.365.522-.748 1.245-.33 1.862.409.723 1.549.819 2.036.14.488-.47.227-1.158.157-1.724.4.349.47.897.627 1.367 1.645 5.353 3.342 10.688 4.978 16.041-.287.288-.53.61-.757.958-2.655-.183-5.31-.583-7.973-.68-.287-.6-.635-1.305-1.384-1.392-.844-.156-1.497.61-1.627 1.384-6.302.853-12.595 1.758-18.905 2.594-.305-.992-1.715-1.332-2.385-.496-.827.81-.044 2.385 1.088 2.272.827.052 1.253-.766 1.445-1.445 6.301-.697 12.56-1.767 18.852-2.498.27.478.68 1.01 1.297.957.714.096 1.175-.53 1.489-1.07 2.69.295 5.396.47 8.086.792.148.443.313.94.774 1.14.853.513 2.028-.27 1.994-1.227.034-.845-.81-1.454-1.602-1.41-1.776-5.763-3.63-11.498-5.353-17.278.348-.322.792-.67.723-1.201.104-1.123-1.445-1.898-2.255-1.062-.618.487-.391 1.34-.27 1.993-.478-.096-.609-.6-.8-.975-3.317-7.041-6.737-14.04-10.027-21.098.53-.435.783-1.262.287-1.828z"/><path fill="none" stroke="#000" stroke-miterlimit="20" stroke-width=".08" d="M85.662 68.83c-.453-.653-1.497-.688-2.01-.07-.549.575-.349 1.637.365 1.976.348.105.714.14 1.053.21 3.464 7.258 6.902 14.535 10.427 21.768-.365.522-.748 1.245-.33 1.862.409.723 1.549.819 2.036.14.488-.47.227-1.158.157-1.724.4.349.47.897.627 1.367 1.645 5.353 3.342 10.688 4.978 16.041-.287.288-.53.61-.757.958-2.655-.183-5.31-.583-7.973-.68-.287-.6-.635-1.305-1.384-1.392-.844-.156-1.497.61-1.627 1.384-6.302.853-12.595 1.758-18.905 2.594-.305-.992-1.715-1.332-2.385-.496-.827.81-.044 2.385 1.088 2.272.827.052 1.253-.766 1.445-1.445 6.301-.697 12.56-1.767 18.852-2.498.27.478.68 1.01 1.297.957.714.096 1.175-.53 1.489-1.07 2.69.295 5.396.47 8.086.792.148.443.313.94.774 1.14.853.513 2.028-.27 1.994-1.227.034-.845-.81-1.454-1.602-1.41-1.776-5.763-3.63-11.498-5.353-17.278.348-.322.792-.67.723-1.201.104-1.123-1.445-1.898-2.255-1.062-.618.487-.391 1.34-.27 1.993-.478-.096-.609-.6-.8-.975-3.317-7.041-6.737-14.04-10.027-21.098.53-.435.783-1.262.287-1.828z"/><path fill="url(#x)" d="M69.864 69.857c-.905-.635-2.22.34-2.002 1.384.113 1.062 1.628 1.497 2.315.705.636-.583.418-1.68-.313-2.089z"/><path fill="none" stroke="#000" stroke-miterlimit="20" stroke-width=".08" d="M69.864 69.857c-.905-.635-2.22.34-2.002 1.384.113 1.062 1.628 1.497 2.315.705.636-.583.418-1.68-.313-2.089z"/><path fill="url(#y)" d="M375.409 70.553c-.827-.348-1.81.47-1.602 1.358.061.914 1.35 1.384 1.976.714.731-.557.453-1.767-.374-2.072z"/><path fill="none" stroke="#000" stroke-miterlimit="20" stroke-width=".08" d="M375.409 70.553c-.827-.348-1.81.47-1.602 1.358.061.914 1.35 1.384 1.976.714.731-.557.453-1.767-.374-2.072z"/><path fill="url(#z)" d="M137.059 73.435c.009-1.071-1.419-1.68-2.202-.967-.705.531-.549 1.593.07 2.133-2.56 5.37-5.214 10.688-7.825 16.033l-.079.017c-.461 0-1 .035-1.314.444-.575.566-.383 1.593.305 1.984.522.357 1.122.01 1.645-.087 4.195 3.343 8.408 6.676 12.568 10.062-.304.766.035 1.784.914 1.932.818.2 1.645-.591 1.48-1.41.008-.713-.784-1.27-1.454-1.061-.287.026-.635.278-.914.06-4.152-3.29-8.269-6.623-12.42-9.913.252-.68-.009-1.297-.348-1.88 2.532-5.353 5.213-10.645 7.816-15.964.861.157 1.819-.46 1.758-1.383z"/><path fill="none" stroke="#000" stroke-miterlimit="20" stroke-width=".08" d="M137.059 73.435c.009-1.071-1.419-1.68-2.202-.967-.705.531-.549 1.593.07 2.133-2.56 5.37-5.214 10.688-7.825 16.033l-.079.017c-.461 0-1 .035-1.314.444-.575.566-.383 1.593.305 1.984.522.357 1.122.01 1.645-.087 4.195 3.343 8.408 6.676 12.568 10.062-.304.766.035 1.784.914 1.932.818.2 1.645-.591 1.48-1.41.008-.713-.784-1.27-1.454-1.061-.287.026-.635.278-.914.06-4.152-3.29-8.269-6.623-12.42-9.913.252-.68-.009-1.297-.348-1.88 2.532-5.353 5.213-10.645 7.816-15.964.861.157 1.819-.46 1.758-1.383z"/><path fill="url(#A)" d="M181.702 72.677c-.853-.287-1.82.505-1.715 1.393.052.975 1.358 1.61 2.115.94.853-.592.592-2.054-.4-2.333z"/><path fill="none" stroke="#000" stroke-miterlimit="20" stroke-width=".08" d="M181.702 72.677c-.853-.287-1.82.505-1.715 1.393.052.975 1.358 1.61 2.115.94.853-.592.592-2.054-.4-2.333z"/><path fill="url(#B)" d="M34.848 72.582c-.722-.418-1.715.052-1.88.861-.261.923.714 1.898 1.636 1.584 1.088-.278 1.254-1.95.244-2.445z"/><path fill="none" stroke="#000" stroke-miterlimit="20" stroke-width=".08" d="M34.848 72.582c-.722-.418-1.715.052-1.88.861-.261.923.714 1.898 1.636 1.584 1.088-.278 1.254-1.95.244-2.445z"/><path fill="url(#C)" d="M31.018 74.74c-.853-.426-1.993.279-1.993 1.245-.13 1.157 1.471 1.976 2.324 1.149.836-.618.6-2.002-.33-2.394z"/><path fill="none" stroke="#000" stroke-miterlimit="20" stroke-width=".08" d="M31.018 74.74c-.853-.426-1.993.279-1.993 1.245-.13 1.157 1.471 1.976 2.324 1.149.836-.618.6-2.002-.33-2.394z"/><path fill="url(#D)" d="M161.3 81.912c-.662-.365-1.315.122-1.698.653-.148.818.531 1.732 1.419 1.514 1.053-.121 1.245-1.766.278-2.167z"/><path fill="none" stroke="#000" stroke-miterlimit="20" stroke-width=".08" d="M161.3 81.912c-.662-.365-1.315.122-1.698.653-.148.818.531 1.732 1.419 1.514 1.053-.121 1.245-1.766.278-2.167z"/><path fill="url(#E)" d="M232.994 86.586c-.731-.635-1.993 0-2.002.949-.087.896.992 1.662 1.802 1.218.862-.339.957-1.67.2-2.167z"/><path fill="none" stroke="#000" stroke-miterlimit="20" stroke-width=".08" d="M232.994 86.586c-.731-.635-1.993 0-2.002.949-.087.896.992 1.662 1.802 1.218.862-.339.957-1.67.2-2.167z"/><path fill="url(#F)" d="M421.174 103.254c-.87-.426-1.958.453-1.61 1.393.183.923 1.567 1.123 2.054.357.479-.549.192-1.462-.444-1.75z"/><path fill="none" stroke="#000" stroke-miterlimit="20" stroke-width=".08" d="M421.174 103.254c-.87-.426-1.958.453-1.61 1.393.183.923 1.567 1.123 2.054.357.479-.549.192-1.462-.444-1.75z"/><path fill="url(#G)" d="M354.101 105.282c.087-.844-.81-1.331-1.549-1.21-.34.331-.818.67-.757 1.22-.009.791.81 1.252 1.523 1.174.392-.305.853-.627.783-1.184z"/><path fill="none" stroke="#000" stroke-miterlimit="20" stroke-width=".08" d="M354.101 105.282c.087-.844-.81-1.331-1.549-1.21-.34.331-.818.67-.757 1.22-.009.791.81 1.252 1.523 1.174.392-.305.853-.627.783-1.184z"/><path fill="url(#H)" d="M220.434 109.565c-.087-.993-1.401-1.62-2.193-.958-.531.34-.522 1.01-.627 1.567-6.998 3.09-13.935 6.31-20.933 9.383-.679-.914-2.341-.705-2.602.47-.253.574.548 1.166.078 1.662-5.988 7.416-11.907 14.884-17.904 22.283-.67-.105-1.471-.148-1.906.487-.723.896.07 2.437 1.244 2.254 1.14-.035 1.637-1.514.94-2.341 6.024-7.607 12.134-15.154 18.21-22.726.608.104 1.366.217 1.8-.331.375-.348.34-.879.358-1.34 6.946-3.186 13.926-6.276 20.88-9.453.323.21.627.453.984.583.87.192 1.82-.626 1.671-1.54z"/><path fill="none" stroke="#000" stroke-miterlimit="20" stroke-width=".08" d="M220.434 109.565c-.087-.993-1.401-1.62-2.193-.958-.531.34-.522 1.01-.627 1.567-6.998 3.09-13.935 6.31-20.933 9.383-.679-.914-2.341-.705-2.602.47-.253.574.548 1.166.078 1.662-5.988 7.416-11.907 14.884-17.904 22.283-.67-.105-1.471-.148-1.906.487-.723.896.07 2.437 1.244 2.254 1.14-.035 1.637-1.514.94-2.341 6.024-7.607 12.134-15.154 18.21-22.726.608.104 1.366.217 1.8-.331.375-.348.34-.879.358-1.34 6.946-3.186 13.926-6.276 20.88-9.453.323.21.627.453.984.583.87.192 1.82-.626 1.671-1.54z"/><path fill="url(#I)" d="M145.432 113.186c.94-.827.218-2.655-1.08-2.472-.983-.009-1.444 1.062-1.366 1.915-7.05 3.438-14.065 6.937-21.124 10.349-.557-.653-1.654-.801-2.246-.105-.8.731-.278 2.193.766 2.359 1.053.252 1.924-.87 1.697-1.854 4.561-2.298 9.166-4.5 13.735-6.772 2.48-1.2 4.935-2.463 7.425-3.62.548.635 1.593.835 2.193.2z"/><path fill="none" stroke="#000" stroke-miterlimit="20" stroke-width=".08" d="M145.432 113.186c.94-.827.218-2.655-1.08-2.472-.983-.009-1.444 1.062-1.366 1.915-7.05 3.438-14.065 6.937-21.124 10.349-.557-.653-1.654-.801-2.246-.105-.8.731-.278 2.193.766 2.359 1.053.252 1.924-.87 1.697-1.854 4.561-2.298 9.166-4.5 13.735-6.772 2.48-1.2 4.935-2.463 7.425-3.62.548.635 1.593.835 2.193.2z"/><path fill="url(#J)" d="M242.804 114.43c-.357-.687-1.297-1.08-1.941-.522-.758.522-.54 1.837.356 2.08.688.305 1.271-.252 1.602-.792-.009-.2-.017-.583-.017-.766z"/><path fill="none" stroke="#000" stroke-miterlimit="20" stroke-width=".08" d="M242.804 114.43c-.357-.687-1.297-1.08-1.941-.522-.758.522-.54 1.837.356 2.08.688.305 1.271-.252 1.602-.792-.009-.2-.017-.583-.017-.766z"/><path fill="url(#K)" d="M265.756 126.685c-.827-.504-1.993.314-1.81 1.263.087.966 1.48 1.427 2.106.661.6-.522.392-1.558-.296-1.924z"/><path fill="none" stroke="#000" stroke-miterlimit="20" stroke-width=".08" d="M265.756 126.685c-.827-.504-1.993.314-1.81 1.263.087.966 1.48 1.427 2.106.661.6-.522.392-1.558-.296-1.924z"/><path fill="url(#L)" d="M155.642 132.535c-.836-.349-1.828.513-1.602 1.392.157.897 1.428 1.314 2.028.583.67-.557.375-1.714-.426-1.975z"/><path fill="none" stroke="#000" stroke-miterlimit="20" stroke-width=".08" d="M155.642 132.535c-.836-.349-1.828.513-1.602 1.392.157.897 1.428 1.314 2.028.583.67-.557.375-1.714-.426-1.975z"/><path fill="url(#M)" d="M20.252 139.533c1.601 2.236 3.246 4.439 4.848 6.675.966-.365 1.915-.8 2.89-1.131.13-.496.139-1.097.609-1.41.757-.679 2.08-.009 2.028.983.078.557-.34.967-.766 1.263a322.22 322.22 0 001.967 8.616c.766 0 1.48.645 1.366 1.437.018 1.035-1.427 1.636-2.14.879-.61-.496-.497-1.367-.097-1.959-2.01-2.741-3.977-5.518-6.031-8.225a1622.786 1622.786 0 01-15.154 6.171c-.035.784-.444 1.523-1.262 1.697-.496 4.63-.714 9.288-1.262 13.91.4.26.757.574 1.053.948a1.483 1.483 0 01-1.41 1.724c-.635 3.15-1.48 6.266-2.054 9.435.54.278.896.879.722 1.497-.087.574-.635.844-1.114 1.044-.627 8.278-1.01 16.59-1.671 24.867.348.253.749.47.949.862.426.827-.427 1.924-1.34 1.75-.75-.07-1.22-.888-1.01-1.593.07-.575.67-.775 1.105-.992.522-8.304 1.08-16.608 1.558-24.911-.453-.279-1.001-.627-.975-1.236-.113-.801.61-1.401 1.35-1.428.74-3.133 1.462-6.266 2.14-9.409-.557-.356-.992-1.053-.67-1.706.157-.487.68-.635 1.088-.826.383-4.657.818-9.314 1.123-13.98-.4-.26-.87-.547-.94-1.07-.183-.827.635-1.653 1.462-1.48.383.027.618.349.888.566 5.1-1.975 10.149-4.117 15.232-6.153-1.61-2.176-3.194-4.37-4.796-6.554-.513.043-1.14.191-1.54-.253-.653-.479-.662-1.54-.018-2.02.636-.643 1.828-.321 2.107.514.174.505.008 1.036-.235 1.498zm7.981 5.814c-.992.33-1.95.766-2.924 1.157 2.045 2.742 3.977 5.562 6.075 8.26-.531-2.941-1.297-5.84-1.932-8.764-.462-.105-.923-.253-1.219-.653z"/><path fill="none" stroke="#000" stroke-miterlimit="20" stroke-width=".08" d="M20.252 139.533c1.601 2.236 3.246 4.439 4.848 6.675.966-.365 1.915-.8 2.89-1.131.13-.496.139-1.097.609-1.41.757-.679 2.08-.009 2.028.983.078.557-.34.967-.766 1.263a322.22 322.22 0 001.967 8.616c.766 0 1.48.645 1.366 1.437.018 1.035-1.427 1.636-2.14.879-.61-.496-.497-1.367-.097-1.959-2.01-2.741-3.977-5.518-6.031-8.225a1622.786 1622.786 0 01-15.154 6.171c-.035.784-.444 1.523-1.262 1.697-.496 4.63-.714 9.288-1.262 13.91.4.26.757.574 1.053.948a1.483 1.483 0 01-1.41 1.724c-.635 3.15-1.48 6.266-2.054 9.435.54.278.896.879.722 1.497-.087.574-.635.844-1.114 1.044-.627 8.278-1.01 16.59-1.671 24.867.348.253.749.47.949.862.426.827-.427 1.924-1.34 1.75-.75-.07-1.22-.888-1.01-1.593.07-.575.67-.775 1.105-.992.522-8.304 1.08-16.608 1.558-24.911-.453-.279-1.001-.627-.975-1.236-.113-.801.61-1.401 1.35-1.428.74-3.133 1.462-6.266 2.14-9.409-.557-.356-.992-1.053-.67-1.706.157-.487.68-.635 1.088-.826.383-4.657.818-9.314 1.123-13.98-.4-.26-.87-.547-.94-1.07-.183-.827.635-1.653 1.462-1.48.383.027.618.349.888.566 5.1-1.975 10.149-4.117 15.232-6.153-1.61-2.176-3.194-4.37-4.796-6.554-.513.043-1.14.191-1.54-.253-.653-.479-.662-1.54-.018-2.02.636-.643 1.828-.321 2.107.514.174.505.008 1.036-.235 1.498zm7.981 5.814c-.992.33-1.95.766-2.924 1.157 2.045 2.742 3.977 5.562 6.075 8.26-.531-2.941-1.297-5.84-1.932-8.764-.462-.105-.923-.253-1.219-.653z"/><path fill="url(#N)" d="M212.488 143.832c-.88-.713-2.263.4-1.837 1.419.252.888 1.54 1.132 2.106.427.505-.54.366-1.471-.27-1.846z"/><path fill="none" stroke="#000" stroke-miterlimit="20" stroke-width=".08" d="M212.488 143.832c-.88-.713-2.263.4-1.837 1.419.252.888 1.54 1.132 2.106.427.505-.54.366-1.471-.27-1.846z"/><path fill="url(#O)" d="M277.759 147.61c-1.08-.374-2.202.853-1.732 1.897.365 1.001 1.888 1.193 2.489.331.635-.749.183-2.002-.757-2.228z"/><path fill="none" stroke="#000" stroke-miterlimit="20" stroke-width=".08" d="M277.759 147.61c-1.08-.374-2.202.853-1.732 1.897.365 1.001 1.888 1.193 2.489.331.635-.749.183-2.002-.757-2.228z"/><path fill="url(#P)" d="M35.945 152.11c.574-.801-.07-2.072-1.053-2.098-.88-.122-1.663.775-1.463 1.636.061.523.54.827.932 1.115-.697 4.691-1.367 9.382-2.133 14.065-.635.122-1.34.575-1.34 1.306-.096.592.357 1.01.757 1.358-2.272 8.312-4.674 16.58-6.99 24.876-.652.07-1.41.391-1.514 1.131-.33 1.175 1.271 2.194 2.159 1.323.81-.557.635-1.836-.218-2.254.418-2.133 1.158-4.196 1.698-6.293 1.766-6.215 3.49-12.447 5.283-18.662.81.027 1.593-.626 1.523-1.47.009-.601-.487-.975-.94-1.271.705-4.692 1.41-9.392 2.141-14.083.444-.105.923-.244 1.158-.68z"/><path fill="none" stroke="#000" stroke-miterlimit="20" stroke-width=".08" d="M35.945 152.11c.574-.801-.07-2.072-1.053-2.098-.88-.122-1.663.775-1.463 1.636.061.523.54.827.932 1.115-.697 4.691-1.367 9.382-2.133 14.065-.635.122-1.34.575-1.34 1.306-.096.592.357 1.01.757 1.358-2.272 8.312-4.674 16.58-6.99 24.876-.652.07-1.41.391-1.514 1.131-.33 1.175 1.271 2.194 2.159 1.323.81-.557.635-1.836-.218-2.254.418-2.133 1.158-4.196 1.698-6.293 1.766-6.215 3.49-12.447 5.283-18.662.81.027 1.593-.626 1.523-1.47.009-.601-.487-.975-.94-1.271.705-4.692 1.41-9.392 2.141-14.083.444-.105.923-.244 1.158-.68z"/><path fill="url(#Q)" d="M285.418 161.797c-.905-.548-2.132.4-1.871 1.419.122.931 1.366 1.401 2.071.792.731-.522.644-1.854-.2-2.21z"/><path fill="none" stroke="#000" stroke-miterlimit="20" stroke-width=".08" d="M285.418 161.797c-.905-.548-2.132.4-1.871 1.419.122.931 1.366 1.401 2.071.792.731-.522.644-1.854-.2-2.21z"/><path fill="url(#R)" d="M75.278 180.093c.592-.209 1.314-.365 1.828.096.592.418.592 1.184.592 1.828 5.77 3.525 11.541 7.041 17.295 10.601.452-.261.93-.61 1.48-.479 1.026.13 1.6 1.445 1.018 2.298-.27.479-.836.61-1.323.766-.775 4.587-1.663 9.165-2.403 13.761.47.287.95.705.95 1.306.12 1.035-1.098 1.915-2.038 1.445-.618-.253-.931-.914-.896-1.558-2.725-.932-5.475-1.837-8.243-2.638-.313.348-.661.775-1.192.758-.914.13-1.732-.801-1.593-1.689.043-.531.54-.853.896-1.166-1.706-7.53-3.568-15.023-5.292-22.544-.766-.008-1.357-.522-1.688-1.175a505.8 505.8 0 00-8.156.766c-.435.13-1.114.035-1.27.592-.28.775-1.245 1.166-1.985.818-.897-.304-1.245-1.584-.618-2.289.296-.418.81-.54 1.253-.696.13-.348.253-.705.522-.958.618-.574.784-1.418 1.115-2.15.47-1.21 1.027-2.393 1.427-3.629-1.018-.688-.8-2.472.453-2.733 1.305-.366 2.393 1.27 1.601 2.35 2.072 2.132 4.187 4.213 6.267 6.32zm-6.58-5.936c-.427.104-.862.183-1.306.261-.679 1.68-1.366 3.369-2.054 5.048 1.253-.104 2.324 1.489 1.401 2.49 2.655-.157 5.284-.462 7.93-.705.122-.261.226-.514.33-.775a359.215 359.215 0 00-6.301-6.319zm8.721 8.164l-.6.392c1.688 7.546 3.533 15.05 5.292 22.578a1.73 1.73 0 011.645 1.784c2.724.862 5.44 1.759 8.173 2.612.348-.47.844-.74 1.401-.845.827-4.578 1.654-9.165 2.411-13.76-.827-.366-1.114-1.245-.931-2.08-5.806-3.552-11.611-7.103-17.39-10.68z"/><path fill="none" stroke="#000" stroke-miterlimit="20" stroke-width=".08" d="M75.278 180.093c.592-.209 1.314-.365 1.828.096.592.418.592 1.184.592 1.828 5.77 3.525 11.541 7.041 17.295 10.601.452-.261.93-.61 1.48-.479 1.026.13 1.6 1.445 1.018 2.298-.27.479-.836.61-1.323.766-.775 4.587-1.663 9.165-2.403 13.761.47.287.95.705.95 1.306.12 1.035-1.098 1.915-2.038 1.445-.618-.253-.931-.914-.896-1.558-2.725-.932-5.475-1.837-8.243-2.638-.313.348-.661.775-1.192.758-.914.13-1.732-.801-1.593-1.689.043-.531.54-.853.896-1.166-1.706-7.53-3.568-15.023-5.292-22.544-.766-.008-1.357-.522-1.688-1.175a505.8 505.8 0 00-8.156.766c-.435.13-1.114.035-1.27.592-.28.775-1.245 1.166-1.985.818-.897-.304-1.245-1.584-.618-2.289.296-.418.81-.54 1.253-.696.13-.348.253-.705.522-.958.618-.574.784-1.418 1.115-2.15.47-1.21 1.027-2.393 1.427-3.629-1.018-.688-.8-2.472.453-2.733 1.305-.366 2.393 1.27 1.601 2.35 2.072 2.132 4.187 4.213 6.267 6.32zm-6.58-5.936c-.427.104-.862.183-1.306.261-.679 1.68-1.366 3.369-2.054 5.048 1.253-.104 2.324 1.489 1.401 2.49 2.655-.157 5.284-.462 7.93-.705.122-.261.226-.514.33-.775a359.215 359.215 0 00-6.301-6.319zm8.721 8.164l-.6.392c1.688 7.546 3.533 15.05 5.292 22.578a1.73 1.73 0 011.645 1.784c2.724.862 5.44 1.759 8.173 2.612.348-.47.844-.74 1.401-.845.827-4.578 1.654-9.165 2.411-13.76-.827-.366-1.114-1.245-.931-2.08-5.806-3.552-11.611-7.103-17.39-10.68z"/><path fill="url(#S)" d="M116.117 176.037c-.931-.252-1.828.818-1.419 1.697.27.836 1.497 1.123 2.063.435.766-.644.305-1.975-.644-2.132z"/><path fill="none" stroke="#000" stroke-miterlimit="20" stroke-width=".08" d="M116.117 176.037c-.931-.252-1.828.818-1.419 1.697.27.836 1.497 1.123 2.063.435.766-.644.305-1.975-.644-2.132z"/><path fill="url(#T)" d="M237.546 179.484c.053-1.036-1.28-1.767-2.115-1.14-.827.47-.888 1.784-.104 2.332.626.522 1.54.27 2.037-.296 3.516 1.671 7.006 3.386 10.505 5.092-.13.818.366 1.81 1.262 1.854 1.01.174 1.88-1.018 1.445-1.932-.235-.68-1.018-1.027-1.706-.862-.296.148-.548.366-.818.566-3.168-1.55-6.345-3.099-9.522-4.63-.41-.236-1.07-.366-.984-.984z"/><path fill="none" stroke="#000" stroke-miterlimit="20" stroke-width=".08" d="M237.546 179.484c.053-1.036-1.28-1.767-2.115-1.14-.827.47-.888 1.784-.104 2.332.626.522 1.54.27 2.037-.296 3.516 1.671 7.006 3.386 10.505 5.092-.13.818.366 1.81 1.262 1.854 1.01.174 1.88-1.018 1.445-1.932-.235-.68-1.018-1.027-1.706-.862-.296.148-.548.366-.818.566-3.168-1.55-6.345-3.099-9.522-4.63-.41-.236-1.07-.366-.984-.984z"/><path fill="url(#U)" d="M277.75 188.666c-.67-.783-2.106-.165-2.054.845-.052.783.74 1.297 1.445 1.28 2.428 7.998 4.987 15.962 7.398 23.97-.479.383-.757.914-.67 1.55.322.356.661.809 1.201.774.897.043 1.575-1.105 1.01-1.845-.253-.453-.801-.523-1.254-.627-2.402-7.973-4.909-15.92-7.38-23.875.609-.505 1.009-1.48.304-2.072z"/><path fill="none" stroke="#000" stroke-miterlimit="20" stroke-width=".08" d="M277.75 188.666c-.67-.783-2.106-.165-2.054.845-.052.783.74 1.297 1.445 1.28 2.428 7.998 4.987 15.962 7.398 23.97-.479.383-.757.914-.67 1.55.322.356.661.809 1.201.774.897.043 1.575-1.105 1.01-1.845-.253-.453-.801-.523-1.254-.627-2.402-7.973-4.909-15.92-7.38-23.875.609-.505 1.009-1.48.304-2.072z"/><path fill="url(#V)" d="M353.205 192.818c-.975-.374-2.09.6-1.81 1.62.19 1.096 1.792 1.453 2.436.556.618-.696.244-1.906-.626-2.176z"/><path fill="none" stroke="#000" stroke-miterlimit="20" stroke-width=".08" d="M353.205 192.818c-.975-.374-2.09.6-1.81 1.62.19 1.096 1.792 1.453 2.436.556.618-.696.244-1.906-.626-2.176z"/><path fill="url(#W)" d="M17.77 195.09c.062-.757-.426-1.645-1.27-1.636-1.105-.13-1.897 1.453-1 2.21.582.697 1.618.436 2.114-.217 6.171 2.42 12.299 4.935 18.479 7.337.06.68.357 1.55 1.149 1.637.992.226 1.871-1.001 1.314-1.863-.2-.435-.67-.566-1.088-.722-.418.121-.836.278-1.114.644-6.223-2.394-12.386-4.953-18.583-7.39z"/><path fill="none" stroke="#000" stroke-miterlimit="20" stroke-width=".08" d="M17.77 195.09c.062-.757-.426-1.645-1.27-1.636-1.105-.13-1.897 1.453-1 2.21.582.697 1.618.436 2.114-.217 6.171 2.42 12.299 4.935 18.479 7.337.06.68.357 1.55 1.149 1.637.992.226 1.871-1.001 1.314-1.863-.2-.435-.67-.566-1.088-.722-.418.121-.836.278-1.114.644-6.223-2.394-12.386-4.953-18.583-7.39z"/><path fill="url(#X)" d="M325.64 198.284c-.662-.209-1.22.305-1.585.801-.113.757.348 1.68 1.193 1.715.905.104 1.54-.853 1.392-1.689-.278-.34-.54-.748-1-.827z"/><path fill="none" stroke="#000" stroke-miterlimit="20" stroke-width=".08" d="M325.64 198.284c-.662-.209-1.22.305-1.585.801-.113.757.348 1.68 1.193 1.715.905.104 1.54-.853 1.392-1.689-.278-.34-.54-.748-1-.827z"/><path fill="url(#Y)" d="M285.714 200.634c-.513-.652-1.619-.591-2.08.096-.531.636-.192 1.697.566 1.976.487.244.992-.017 1.462-.14 6.267 5.362 12.499 10.759 18.748 16.12.374.21.21.645.2.993-.139.827.827 1.636 1.62 1.358.347-.105.74-.418 1.053-.07 6.44 4.744 12.908 9.452 19.331 14.222-.052.54-.174 1.227.33 1.61.619.67 1.837.349 2.107-.496.41-.879-.496-2.036-1.453-1.758-.348.044-.749.435-1.062.105-6.45-4.753-12.917-9.488-19.367-14.24.288-.792-.078-1.828-.974-1.976-.505-.209-1.071.479-1.48.009-6.258-5.37-12.508-10.758-18.766-16.129.035-.565.253-1.253-.235-1.68z"/><path fill="none" stroke="#000" stroke-miterlimit="20" stroke-width=".08" d="M285.714 200.634c-.513-.652-1.619-.591-2.08.096-.531.636-.192 1.697.566 1.976.487.244.992-.017 1.462-.14 6.267 5.362 12.499 10.759 18.748 16.12.374.21.21.645.2.993-.139.827.827 1.636 1.62 1.358.347-.105.74-.418 1.053-.07 6.44 4.744 12.908 9.452 19.331 14.222-.052.54-.174 1.227.33 1.61.619.67 1.837.349 2.107-.496.41-.879-.496-2.036-1.453-1.758-.348.044-.749.435-1.062.105-6.45-4.753-12.917-9.488-19.367-14.24.288-.792-.078-1.828-.974-1.976-.505-.209-1.071.479-1.48.009-6.258-5.37-12.508-10.758-18.766-16.129.035-.565.253-1.253-.235-1.68z"/><path fill="url(#Z)" d="M3.166 226.094c.113-.792-.314-1.672-1.175-1.776-1.08-.192-1.968 1.245-1.228 2.098.54.774 1.645.6 2.237 0 4.753 2.35 9.522 4.665 14.283 6.998.096.54.079 1.218.627 1.54.897.705 2.307-.287 1.976-1.375-.192-1.088-1.689-1.34-2.333-.479-4.83-2.271-9.574-4.709-14.387-7.006z"/><path fill="none" stroke="#000" stroke-miterlimit="20" stroke-width=".08" d="M3.166 226.094c.113-.792-.314-1.672-1.175-1.776-1.08-.192-1.968 1.245-1.228 2.098.54.774 1.645.6 2.237 0 4.753 2.35 9.522 4.665 14.283 6.998.096.54.079 1.218.627 1.54.897.705 2.307-.287 1.976-1.375-.192-1.088-1.689-1.34-2.333-.479-4.83-2.271-9.574-4.709-14.387-7.006z"/><path fill="url(#aa)" d="M290.057 231.037c.183-.93-.618-1.914-1.592-1.723-1.106.026-1.637 1.593-.827 2.324.365.444.974.41 1.488.41 2.986 5.84 6.05 11.645 8.965 17.52-.244.322-.592.636-.53 1.088-.105.644.47 1.062.896 1.419-1.567 8.182-3.316 16.337-4.831 24.528-.479.165-1.062.27-1.314.766-.523.827.078 2.115 1.088 2.089.922.122 1.714-.923 1.41-1.793-.113-.427-.514-.67-.836-.94 1.61-8.2 3.255-16.399 4.91-24.59.835-.043 1.644-.809 1.444-1.688-.122-.887-1.088-1.253-1.88-1.166-2.925-5.719-5.875-11.42-8.791-17.138-.27-.4.226-.757.4-1.106z"/><path fill="none" stroke="#000" stroke-miterlimit="20" stroke-width=".08" d="M290.057 231.037c.183-.93-.618-1.914-1.592-1.723-1.106.026-1.637 1.593-.827 2.324.365.444.974.41 1.488.41 2.986 5.84 6.05 11.645 8.965 17.52-.244.322-.592.636-.53 1.088-.105.644.47 1.062.896 1.419-1.567 8.182-3.316 16.337-4.831 24.528-.479.165-1.062.27-1.314.766-.523.827.078 2.115 1.088 2.089.922.122 1.714-.923 1.41-1.793-.113-.427-.514-.67-.836-.94 1.61-8.2 3.255-16.399 4.91-24.59.835-.043 1.644-.809 1.444-1.688-.122-.887-1.088-1.253-1.88-1.166-2.925-5.719-5.875-11.42-8.791-17.138-.27-.4.226-.757.4-1.106z"/><path fill="url(#ab)" d="M94.688 237.113c-.888-.374-1.985.418-1.845 1.392-.035 1.167 1.619 1.733 2.35.853.713-.661.383-1.932-.505-2.245z"/><path fill="none" stroke="#000" stroke-miterlimit="20" stroke-width=".08" d="M94.688 237.113c-.888-.374-1.985.418-1.845 1.392-.035 1.167 1.619 1.733 2.35.853.713-.661.383-1.932-.505-2.245z"/><path fill="url(#ac)" d="M363.754 240.82c-.209-.417-.67-.565-1.08-.722-.487.148-1.079.288-1.253.836-.487.923.47 2.08 1.463 1.81.844-.122 1.331-1.2.87-1.923z"/><path fill="none" stroke="#000" stroke-miterlimit="20" stroke-width=".08" d="M363.754 240.82c-.209-.417-.67-.565-1.08-.722-.487.148-1.079.288-1.253.836-.487.923.47 2.08 1.463 1.81.844-.122 1.331-1.2.87-1.923z"/><path fill="url(#ad)" d="M258.018 242.918c-.357-.435-.757-1.035-1.41-.914-1.158-.008-1.706 1.69-.74 2.35.958.845 2.429-.26 2.15-1.436z"/><path fill="none" stroke="#000" stroke-miterlimit="20" stroke-width=".08" d="M258.018 242.918c-.357-.435-.757-1.035-1.41-.914-1.158-.008-1.706 1.69-.74 2.35.958.845 2.429-.26 2.15-1.436z"/><path fill="url(#ae)" d="M108.788 243.493c-.861-.68-2.263.122-2.22 1.184-.086 1.157 1.507 1.958 2.36 1.122.774-.557.679-1.827-.14-2.306z"/><path fill="none" stroke="#000" stroke-miterlimit="20" stroke-width=".08" d="M108.788 243.493c-.861-.68-2.263.122-2.22 1.184-.086 1.157 1.507 1.958 2.36 1.122.774-.557.679-1.827-.14-2.306z"/><path fill="url(#af)" d="M248.618 244.624c-.366-.504-.932-.966-1.602-.722-.992.27-1.149 1.802-.191 2.22.966.565 2.02-.514 1.793-1.498z"/><path fill="none" stroke="#000" stroke-miterlimit="20" stroke-width=".08" d="M248.618 244.624c-.366-.504-.932-.966-1.602-.722-.992.27-1.149 1.802-.191 2.22.966.565 2.02-.514 1.793-1.498z"/><path fill="url(#ag)" d="M289.474 244.346c-.783-.305-1.801.296-1.767 1.175-.13 1.097 1.41 1.802 2.176 1.01.766-.592.488-1.898-.409-2.185z"/><path fill="none" stroke="#000" stroke-miterlimit="20" stroke-width=".08" d="M289.474 244.346c-.783-.305-1.801.296-1.767 1.175-.13 1.097 1.41 1.802 2.176 1.01.766-.592.488-1.898-.409-2.185z"/><path fill="url(#ah)" d="M326.658 254.625c-.984-.4-2.194.557-1.985 1.61.113 1.08 1.576 1.672 2.394.95.905-.645.653-2.229-.41-2.56z"/><path fill="none" stroke="#000" stroke-miterlimit="20" stroke-width=".08" d="M326.658 254.625c-.984-.4-2.194.557-1.985 1.61.113 1.08 1.576 1.672 2.394.95.905-.645.653-2.229-.41-2.56z"/><path fill="url(#ai)" d="M364.955 274.026c-1-.174-1.889.87-1.61 1.837.2 1.175 1.923 1.488 2.594.548.748-.844.104-2.289-.984-2.385z"/><path fill="none" stroke="#000" stroke-miterlimit="20" stroke-width=".08" d="M364.955 274.026c-1-.174-1.889.87-1.61 1.837.2 1.175 1.923 1.488 2.594.548.748-.844.104-2.289-.984-2.385z"/><path fill="url(#aj)" d="M213.445 276.263c-.957-.73-2.402.427-1.932 1.532.287.862 1.349 1.062 2.071.644 5.771 5.57 11.533 11.15 17.304 16.72-.105.47-.13.95-.105 1.446-7.076 4.822-14.135 9.678-21.22 14.5-.33-.156-.679-.374-1.07-.33-.732-.026-1.358.73-1.22 1.453.027.522.532.81.889 1.097-.505 3.525-1.097 7.041-1.567 10.567-.575.165-1.297.47-1.297 1.183-.27 1.167 1.367 1.993 2.141 1.097.74-.67.322-1.837-.513-2.193.496-3.517 1.131-7.007 1.532-10.532.452-.218 1.027-.357 1.244-.862.218-.374.096-.81.105-1.201 7.041-4.83 14.1-9.627 21.133-14.466.522.252 1.184.54 1.723.157.74-.418.81-1.576.14-2.08-.462-.418-1.123-.227-1.663-.096-5.762-5.545-11.498-11.142-17.269-16.677.21-.68.279-1.55-.426-1.959z"/><path fill="none" stroke="#000" stroke-miterlimit="20" stroke-width=".08" d="M213.445 276.263c-.957-.73-2.402.427-1.932 1.532.287.862 1.349 1.062 2.071.644 5.771 5.57 11.533 11.15 17.304 16.72-.105.47-.13.95-.105 1.446-7.076 4.822-14.135 9.678-21.22 14.5-.33-.156-.679-.374-1.07-.33-.732-.026-1.358.73-1.22 1.453.027.522.532.81.889 1.097-.505 3.525-1.097 7.041-1.567 10.567-.575.165-1.297.47-1.297 1.183-.27 1.167 1.367 1.993 2.141 1.097.74-.67.322-1.837-.513-2.193.496-3.517 1.131-7.007 1.532-10.532.452-.218 1.027-.357 1.244-.862.218-.374.096-.81.105-1.201 7.041-4.83 14.1-9.627 21.133-14.466.522.252 1.184.54 1.723.157.74-.418.81-1.576.14-2.08-.462-.418-1.123-.227-1.663-.096-5.762-5.545-11.498-11.142-17.269-16.677.21-.68.279-1.55-.426-1.959z"/><path fill="url(#ak)" d="M325.44 277.63c-.706-.514-1.907-.113-1.977.818-.148.644.418 1.08.87 1.419.54 0 1.132-.13 1.42-.636.217-.522.19-1.253-.314-1.601z"/><path fill="none" stroke="#000" stroke-miterlimit="20" stroke-width=".08" d="M325.44 277.63c-.706-.514-1.907-.113-1.977.818-.148.644.418 1.08.87 1.419.54 0 1.132-.13 1.42-.636.217-.522.19-1.253-.314-1.601z"/><path fill="url(#al)" d="M147.913 279.17c.174-.922-.627-1.932-1.602-1.688-1.027.191-1.392 1.688-.496 2.289.714.662 1.689.113 2.098-.6z"/><path fill="none" stroke="#000" stroke-miterlimit="20" stroke-width=".08" d="M147.913 279.17c.174-.922-.627-1.932-1.602-1.688-1.027.191-1.392 1.688-.496 2.289.714.662 1.689.113 2.098-.6z"/><path fill="url(#am)" d="M238.12 289.51c-.27-.434-.67-.756-1.174-.87-.792.14-1.34.845-1.193 1.654.331.34.662.8 1.201.757.531.035.862-.409 1.167-.757-.009-.2 0-.592 0-.783z"/><path fill="none" stroke="#000" stroke-miterlimit="20" stroke-width=".08" d="M238.12 289.51c-.27-.434-.67-.756-1.174-.87-.792.14-1.34.845-1.193 1.654.331.34.662.8 1.201.757.531.035.862-.409 1.167-.757-.009-.2 0-.592 0-.783z"/><path fill="url(#an)" d="M333.264 290.355c-1.044-.453-2.237.749-1.776 1.784.288.958 1.706 1.21 2.324.444.697-.67.331-1.915-.548-2.228z"/><path fill="none" stroke="#000" stroke-miterlimit="20" stroke-width=".08" d="M333.264 290.355c-1.044-.453-2.237.749-1.776 1.784.288.958 1.706 1.21 2.324.444.697-.67.331-1.915-.548-2.228z"/><path fill="url(#ao)" d="M392.773 295.16c-.783-.462-1.836.139-1.94 1.027-.201 1.079 1.244 1.967 2.088 1.236.8-.531.688-1.837-.148-2.263z"/><path fill="none" stroke="#000" stroke-miterlimit="20" stroke-width=".08" d="M392.773 295.16c-.783-.462-1.836.139-1.94 1.027-.201 1.079 1.244 1.967 2.088 1.236.8-.531.688-1.837-.148-2.263z"/><path fill="url(#ap)" d="M157.54 304.438c-1.08-.383-2.098 1.088-1.306 1.941.557.81 1.906.505 2.15-.409.2-.635-.218-1.34-.845-1.532z"/><path fill="none" stroke="#000" stroke-miterlimit="20" stroke-width=".08" d="M157.54 304.438c-1.08-.383-2.098 1.088-1.306 1.941.557.81 1.906.505 2.15-.409.2-.635-.218-1.34-.845-1.532z"/><path fill="url(#aq)" d="M377.602 313.978c-.731-.383-1.74 0-2.028.792-.418.853.226 2.02 1.184 2.097.914.166 1.793-.722 1.697-1.619-.017-.548-.4-1.01-.853-1.27z"/><path fill="none" stroke="#000" stroke-miterlimit="20" stroke-width=".08" d="M377.602 313.978c-.731-.383-1.74 0-2.028.792-.418.853.226 2.02 1.184 2.097.914.166 1.793-.722 1.697-1.619-.017-.548-.4-1.01-.853-1.27z"/><path fill="url(#ar)" d="M148.148 316.467c-.052-.722-.67-1.454-1.436-1.35-1.123.027-1.68 1.672-.705 2.316.722.662 1.688.113 2.132-.583 5.971 1.158 11.95 2.246 17.922 3.403.113.68.618 1.428 1.392 1.34.949.018 1.602-1.253.975-1.984-.218-.34-.61-.461-.966-.61-.531.114-1.053.34-1.297.871-6.006-1.062-12.011-2.254-18.017-3.403z"/><path fill="none" stroke="#000" stroke-miterlimit="20" stroke-width=".08" d="M148.148 316.467c-.052-.722-.67-1.454-1.436-1.35-1.123.027-1.68 1.672-.705 2.316.722.662 1.688.113 2.132-.583 5.971 1.158 11.95 2.246 17.922 3.403.113.68.618 1.428 1.392 1.34.949.018 1.602-1.253.975-1.984-.218-.34-.61-.461-.966-.61-.531.114-1.053.34-1.297.871-6.006-1.062-12.011-2.254-18.017-3.403z"/><path fill="url(#as)" d="M227.484 316.606c-.879-.33-1.958.453-1.81 1.41.017 1.036 1.436 1.671 2.202.966.836-.591.61-2.089-.392-2.376z"/><path fill="none" stroke="#000" stroke-miterlimit="20" stroke-width=".08" d="M227.484 316.606c-.879-.33-1.958.453-1.81 1.41.017 1.036 1.436 1.671 2.202.966.836-.591.61-2.089-.392-2.376z"/><path fill="url(#at)" d="M181.693 317.259c-.818-.296-1.758.522-1.55 1.375.131.88 1.41 1.323 2.003.61.687-.566.365-1.733-.453-1.985z"/><path fill="none" stroke="#000" stroke-miterlimit="20" stroke-width=".08" d="M181.693 317.259c-.818-.296-1.758.522-1.55 1.375.131.88 1.41 1.323 2.003.61.687-.566.365-1.733-.453-1.985z"/><path fill="url(#au)" d="M347.234 326.598c-.975-.583-2.298.375-2.08 1.489.078 1.096 1.584 1.645 2.35.862.766-.618.592-1.915-.27-2.35z"/><path fill="none" stroke="#000" stroke-miterlimit="20" stroke-width=".08" d="M347.234 326.598c-.975-.583-2.298.375-2.08 1.489.078 1.096 1.584 1.645 2.35.862.766-.618.592-1.915-.27-2.35z"/><path fill="url(#av)" d="M350.837 327.095c-.905-.383-2.01.426-1.828 1.41.07 1.044 1.55 1.592 2.237.774.74-.583.47-1.888-.409-2.184z"/><path fill="none" stroke="#000" stroke-miterlimit="20" stroke-width=".08" d="M350.837 327.095c-.905-.383-2.01.426-1.828 1.41.07 1.044 1.55 1.592 2.237.774.74-.583.47-1.888-.409-2.184z"/><path fill="url(#aw)" d="M474.634 327.538c-1.01-.339-2.098.793-1.671 1.785.33.931 1.714 1.184 2.315.374.627-.688.235-1.897-.644-2.159z"/><path fill="none" stroke="#000" stroke-miterlimit="20" stroke-width=".08" d="M474.634 327.538c-1.01-.339-2.098.793-1.671 1.785.33.931 1.714 1.184 2.315.374.627-.688.235-1.897-.644-2.159z"/><path fill="url(#ax)" d="M439.548 329.47c-.887-.382-1.975.436-1.828 1.402-.017 1.14 1.62 1.68 2.342.836.705-.653.383-1.933-.514-2.237z"/><path fill="none" stroke="#000" stroke-miterlimit="20" stroke-width=".08" d="M439.548 329.47c-.887-.382-1.975.436-1.828 1.402-.017 1.14 1.62 1.68 2.342.836.705-.653.383-1.933-.514-2.237z"/><path fill="url(#ay)" d="M233.447 333.57c.835-.644.235-2.123-.801-2.063-.905-.156-1.628.897-1.262 1.698.244.522.783.8 1.34.827 1.698 5.796 3.325 11.61 4.988 17.416-.383.383-.853.818-.714 1.428.113 1.027 1.628 1.427 2.22.565.687-.826-.079-2.132-1.123-2.045-1.654-5.475-3.143-11.01-4.753-16.503-.078-.444-.383-1 .105-1.323z"/><path fill="none" stroke="#000" stroke-miterlimit="20" stroke-width=".08" d="M233.447 333.57c.835-.644.235-2.123-.801-2.063-.905-.156-1.628.897-1.262 1.698.244.522.783.8 1.34.827 1.698 5.796 3.325 11.61 4.988 17.416-.383.383-.853.818-.714 1.428.113 1.027 1.628 1.427 2.22.565.687-.826-.079-2.132-1.123-2.045-1.654-5.475-3.143-11.01-4.753-16.503-.078-.444-.383-1 .105-1.323z"/><path fill="url(#az)" d="M218.24 346.583c-.826-.357-1.81.487-1.61 1.358.114.887 1.341 1.375 1.976.696.732-.557.462-1.75-.365-2.054z"/><path fill="none" stroke="#000" stroke-miterlimit="20" stroke-width=".08" d="M218.24 346.583c-.826-.357-1.81.487-1.61 1.358.114.887 1.341 1.375 1.976.696.732-.557.462-1.75-.365-2.054z"/><path fill="url(#aA)" d="M180.03 368.09c-.896-.496-2.054.435-1.845 1.419.13.975 1.471 1.462 2.167.74.732-.566.505-1.802-.322-2.159z"/><path fill="none" stroke="#000" stroke-miterlimit="20" stroke-width=".08" d="M180.03 368.09c-.896-.496-2.054.435-1.845 1.419.13.975 1.471 1.462 2.167.74.732-.566.505-1.802-.322-2.159z"/><path fill="url(#aB)" d="M499.745 369.483c-1.088-.322-2.124 1.027-1.506 1.984.47.845 1.854.862 2.324.01.488-.732-.017-1.76-.818-1.994z"/><path fill="none" stroke="#000" stroke-miterlimit="20" stroke-width=".08" d="M499.745 369.483c-1.088-.322-2.124 1.027-1.506 1.984.47.845 1.854.862 2.324.01.488-.732-.017-1.76-.818-1.994z"/><path fill="url(#aC)" d="M441.15 369.71c-1.106-.305-2.194.913-1.732 1.966.365 1.036 1.906 1.271 2.533.348.652-.783.156-2.045-.801-2.315z"/><path fill="none" stroke="#000" stroke-miterlimit="20" stroke-width=".08" d="M441.15 369.71c-1.106-.305-2.194.913-1.732 1.966.365 1.036 1.906 1.271 2.533.348.652-.783.156-2.045-.801-2.315z"/><path fill="url(#aD)" d="M310.834 379.414c-.253-.557-.496-1.288-1.184-1.419-.827-.235-1.75.531-1.654 1.393-.008.792.862 1.419 1.62 1.227.504-.078.783-.54 1.061-.905 4.744.714 9.47 1.567 14.222 2.202.236.505.418 1.14 1.001 1.35.845.374 1.898-.41 1.81-1.315 0-.783-.835-1.41-1.592-1.227-.505.052-.783.522-1.08.888-2.854-.462-5.7-.906-8.555-1.358-1.88-.261-3.743-.688-5.65-.836z"/><path fill="none" stroke="#000" stroke-miterlimit="20" stroke-width=".08" d="M310.834 379.414c-.253-.557-.496-1.288-1.184-1.419-.827-.235-1.75.531-1.654 1.393-.008.792.862 1.419 1.62 1.227.504-.078.783-.54 1.061-.905 4.744.714 9.47 1.567 14.222 2.202.236.505.418 1.14 1.001 1.35.845.374 1.898-.41 1.81-1.315 0-.783-.835-1.41-1.592-1.227-.505.052-.783.522-1.08.888-2.854-.462-5.7-.906-8.555-1.358-1.88-.261-3.743-.688-5.65-.836z"/><path fill="url(#aE)" d="M372.998 385.794c.008-.54-.479-.862-.862-1.157h-.775c-.391.278-.81.609-.844 1.14-.087.67.461 1.175 1.045 1.384a6218.76 6218.76 0 01-.061 17.277c-.575.27-1.21.749-1.097 1.471.043 1.053 1.55 1.584 2.21.731.68-.783.14-1.967-.809-2.22-.008-2.915-.017-5.84.026-8.755.148-2.838.035-5.693.113-8.54.61-.164 1.115-.678 1.054-1.33z"/><path fill="none" stroke="#000" stroke-miterlimit="20" stroke-width=".08" d="M372.998 385.794c.008-.54-.479-.862-.862-1.157h-.775c-.391.278-.81.609-.844 1.14-.087.67.461 1.175 1.045 1.384a6218.76 6218.76 0 01-.061 17.277c-.575.27-1.21.749-1.097 1.471.043 1.053 1.55 1.584 2.21.731.68-.783.14-1.967-.809-2.22-.008-2.915-.017-5.84.026-8.755.148-2.838.035-5.693.113-8.54.61-.164 1.115-.678 1.054-1.33z"/><path fill="url(#aF)" d="M510.39 390.085c.2-1.114-1.219-2.054-2.141-1.358-.888.514-.818 1.802-.079 2.42-1.566 3.325-3.16 6.633-4.752 9.949-.87-.14-1.924.418-1.915 1.384-.148 1.07 1.167 1.94 2.098 1.41.992-.427 1.062-1.889.235-2.524 1.514-3.378 3.125-6.702 4.752-10.027.81.148 1.776-.366 1.802-1.254z"/><path fill="none" stroke="#000" stroke-miterlimit="20" stroke-width=".08" d="M510.39 390.085c.2-1.114-1.219-2.054-2.141-1.358-.888.514-.818 1.802-.079 2.42-1.566 3.325-3.16 6.633-4.752 9.949-.87-.14-1.924.418-1.915 1.384-.148 1.07 1.167 1.94 2.098 1.41.992-.427 1.062-1.889.235-2.524 1.514-3.378 3.125-6.702 4.752-10.027.81.148 1.776-.366 1.802-1.254z"/><path fill="url(#aG)" d="M305.533 392.67c-.748-.444-1.81.183-1.828 1.045-.104.888.975 1.654 1.767 1.218.949-.356.958-1.845.061-2.263z"/><path fill="none" stroke="#000" stroke-miterlimit="20" stroke-width=".08" d="M305.533 392.67c-.748-.444-1.81.183-1.828 1.045-.104.888.975 1.654 1.767 1.218.949-.356.958-1.845.061-2.263z"/><path fill="url(#aH)" d="M368.985 404.917c-.836-.68-2.202.157-2.028 1.218-.009 1.045 1.436 1.645 2.167.897.705-.531.6-1.68-.139-2.115z"/><path fill="none" stroke="#000" stroke-miterlimit="20" stroke-width=".08" d="M368.985 404.917c-.836-.68-2.202.157-2.028 1.218-.009 1.045 1.436 1.645 2.167.897.705-.531.6-1.68-.139-2.115z"/><path fill="url(#aI)" d="M300.38 405.117c-.827-.61-2.106.244-1.967 1.227.035.975 1.384 1.61 2.115.914.74-.513.627-1.723-.148-2.141z"/><path fill="none" stroke="#000" stroke-miterlimit="20" stroke-width=".08" d="M300.38 405.117c-.827-.61-2.106.244-1.967 1.227.035.975 1.384 1.61 2.115.914.74-.513.627-1.723-.148-2.141z"/><path fill="url(#aJ)" d="M535.24 411.854c-.784-.479-1.941.157-1.941 1.08-.13.817.67 1.6 1.488 1.461.575-.034.905-.548 1.193-.974 6.998.6 13.987 1.392 20.985 2.062.148.41.305.88.722 1.115.792.522 2.028-.122 2.02-1.08.095-.835-.801-1.61-1.62-1.401-.53.043-.791.557-1.052.949-7.007-.6-13.996-1.402-20.994-2.08-.148-.436-.34-.923-.801-1.132z"/><path fill="none" stroke="#000" stroke-miterlimit="20" stroke-width=".08" d="M535.24 411.854c-.784-.479-1.941.157-1.941 1.08-.13.817.67 1.6 1.488 1.461.575-.034.905-.548 1.193-.974 6.998.6 13.987 1.392 20.985 2.062.148.41.305.88.722 1.115.792.522 2.028-.122 2.02-1.08.095-.835-.801-1.61-1.62-1.401-.53.043-.791.557-1.052.949-7.007-.6-13.996-1.402-20.994-2.08-.148-.436-.34-.923-.801-1.132z"/><path fill="url(#aK)" d="M347.73 419c.6-.644.13-1.776-.696-1.924-.801-.209-1.628.61-1.436 1.41.043.453.47.705.757 1.001.505.009 1.07-.035 1.375-.487z"/><path fill="none" stroke="#000" stroke-miterlimit="20" stroke-width=".08" d="M347.73 419c.6-.644.13-1.776-.696-1.924-.801-.209-1.628.61-1.436 1.41.043.453.47.705.757 1.001.505.009 1.07-.035 1.375-.487z"/><path fill="url(#aL)" d="M305.681 444.938c-.592-.583-1.819-.331-1.993.53-.27.662.244 1.254.748 1.61.627.08 1.15-.217 1.541-.67 3.055 1.019 6.075 2.107 9.14 3.1.121.522.234 1.192.809 1.418.67.348 1.592-.052 1.767-.792.235-.757-.418-1.663-1.228-1.593-.513-.078-.844.383-1.21.662a867.833 867.833 0 00-9.139-3.099c-.087-.4-.104-.88-.435-1.166z"/><path fill="none" stroke="#000" stroke-miterlimit="20" stroke-width=".08" d="M305.681 444.938c-.592-.583-1.819-.331-1.993.53-.27.662.244 1.254.748 1.61.627.08 1.15-.217 1.541-.67 3.055 1.019 6.075 2.107 9.14 3.1.121.522.234 1.192.809 1.418.67.348 1.592-.052 1.767-.792.235-.757-.418-1.663-1.228-1.593-.513-.078-.844.383-1.21.662a867.833 867.833 0 00-9.139-3.099c-.087-.4-.104-.88-.435-1.166z"/><path fill="url(#aM)" d="M569.116 458.316c-.218-.583-.48-1.315-1.184-1.419-.818-.218-1.723.557-1.636 1.393-.027.818.87 1.427 1.645 1.227.504-.07.774-.54 1.053-.897 7.485 1.15 14.97 2.29 22.447 3.456.044 1.08 1.428 1.793 2.255 1.027.931-.679.383-2.28-.731-2.35-.662-.14-1.115.435-1.463.896-6.38-.887-12.725-1.95-19.096-2.898-1.088-.148-2.176-.383-3.29-.435z"/><path fill="none" stroke="#000" stroke-miterlimit="20" stroke-width=".08" d="M569.116 458.316c-.218-.583-.48-1.315-1.184-1.419-.818-.218-1.723.557-1.636 1.393-.027.818.87 1.427 1.645 1.227.504-.07.774-.54 1.053-.897 7.485 1.15 14.97 2.29 22.447 3.456.044 1.08 1.428 1.793 2.255 1.027.931-.679.383-2.28-.731-2.35-.662-.14-1.115.435-1.463.896-6.38-.887-12.725-1.95-19.096-2.898-1.088-.148-2.176-.383-3.29-.435z"/><path fill="url(#aN)" d="M287.76 465.662c-.888-.4-1.985.435-1.82 1.401.105 1.019 1.524 1.584 2.229.775.73-.592.461-1.88-.41-2.176z"/><path fill="none" stroke="#000" stroke-miterlimit="20" stroke-width=".08" d="M287.76 465.662c-.888-.4-1.985.435-1.82 1.401.105 1.019 1.524 1.584 2.229.775.73-.592.461-1.88-.41-2.176z"/><path fill="url(#aO)" d="M644.483 474.331c.653-1-.548-2.428-1.636-1.906-.879.296-1.088 1.358-.661 2.115-2.464 2.463-4.892 4.97-7.355 7.433-.592-.13-1.323-.313-1.802.174-.67.6-.47 1.837.374 2.168.68.365 1.637-.061 1.81-.819.114-.426-.034-.844-.121-1.253 2.454-2.498 4.926-4.97 7.398-7.442.688.357 1.61.261 1.993-.47z"/><path fill="none" stroke="#000" stroke-miterlimit="20" stroke-width=".08" d="M644.483 474.331c.653-1-.548-2.428-1.636-1.906-.879.296-1.088 1.358-.661 2.115-2.464 2.463-4.892 4.97-7.355 7.433-.592-.13-1.323-.313-1.802.174-.67.6-.47 1.837.374 2.168.68.365 1.637-.061 1.81-.819.114-.426-.034-.844-.121-1.253 2.454-2.498 4.926-4.97 7.398-7.442.688.357 1.61.261 1.993-.47z"/><path fill="url(#aP)" d="M565.077 493.236c-.818-.357-1.871.244-1.845 1.166-.079.914 1 1.628 1.819 1.228 1.044-.348 1.062-2.02.026-2.394z"/><path fill="none" stroke="#000" stroke-miterlimit="20" stroke-width=".08" d="M565.077 493.236c-.818-.357-1.871.244-1.845 1.166-.079.914 1 1.628 1.819 1.228 1.044-.348 1.062-2.02.026-2.394z"/><path fill="url(#aQ)" d="M595.698 495.543c.496.496.374 1.323-.114 1.793.88-.383 1.933.409 1.81 1.357-.017.636-.582 1.019-1.087 1.28.296 5.692.479 11.402.862 17.095.583.165 1.192.6 1.2 1.28.14 1.078-1.296 1.94-2.158 1.226-.574-.357-.653-1.035-.592-1.645-4.682-2.602-9.374-5.179-14.048-7.79-.54.479-1.41.74-2.002.192-.653-.47-.548-1.367-.217-1.994-3.02-3.368-5.937-6.84-9-10.166-.984.697-2.385-.4-1.994-1.514.114-.636.723-.897 1.271-1.045.575.13 1.158.392 1.314 1.027 1.071.053 2.124-.182 3.186-.226 6.11-.592 12.23-1.14 18.34-1.732.165-.4.304-.862.704-1.088.723-.522 1.915-.061 2.037.844.044.4.183.792.488 1.106zm-3.195-.427c-7.154.6-14.309 1.297-21.455 1.976-.105.287-.218.583-.322.888 3.011 3.333 5.927 6.754 8.93 10.096.488-.13 1.019-.226 1.471.061.33.253.662-.008.931-.2 4.204-2.89 8.4-5.788 12.63-8.643a40.112 40.112 0 00-.14-1.47 1.659 1.659 0 01-1.366-1.855c-.244-.278-.461-.566-.679-.853zm2.664 4.44c.27 2.767.592 5.535.887 8.303.061.81.027 1.636.183 2.446.192-3.317-.2-6.624-.26-9.94.104-.505-.54-.583-.81-.81zm-13.457 9.103c.035.383.053.766.07 1.158 4.56 2.507 9.113 5.031 13.665 7.546.41.323.818-.07 1.193-.252-.6-5.805-1.228-11.611-1.88-17.417-4.344 2.995-8.704 5.963-13.048 8.965z"/><path fill="none" stroke="#000" stroke-miterlimit="20" stroke-width=".08" d="M595.698 495.543c.496.496.374 1.323-.114 1.793.88-.383 1.933.409 1.81 1.357-.017.636-.582 1.019-1.087 1.28.296 5.692.479 11.402.862 17.095.583.165 1.192.6 1.2 1.28.14 1.078-1.296 1.94-2.158 1.226-.574-.357-.653-1.035-.592-1.645-4.682-2.602-9.374-5.179-14.048-7.79-.54.479-1.41.74-2.002.192-.653-.47-.548-1.367-.217-1.994-3.02-3.368-5.937-6.84-9-10.166-.984.697-2.385-.4-1.994-1.514.114-.636.723-.897 1.271-1.045.575.13 1.158.392 1.314 1.027 1.071.053 2.124-.182 3.186-.226 6.11-.592 12.23-1.14 18.34-1.732.165-.4.304-.862.704-1.088.723-.522 1.915-.061 2.037.844.044.4.183.792.488 1.106zm-3.195-.427c-7.154.6-14.309 1.297-21.455 1.976-.105.287-.218.583-.322.888 3.011 3.333 5.927 6.754 8.93 10.096.488-.13 1.019-.226 1.471.061.33.253.662-.008.931-.2 4.204-2.89 8.4-5.788 12.63-8.643a40.112 40.112 0 00-.14-1.47 1.659 1.659 0 01-1.366-1.855c-.244-.278-.461-.566-.679-.853zm2.664 4.44c.27 2.767.592 5.535.887 8.303.061.81.027 1.636.183 2.446.192-3.317-.2-6.624-.26-9.94.104-.505-.54-.583-.81-.81zm-13.457 9.103c.035.383.053.766.07 1.158 4.56 2.507 9.113 5.031 13.665 7.546.41.323.818-.07 1.193-.252-.6-5.805-1.228-11.611-1.88-17.417-4.344 2.995-8.704 5.963-13.048 8.965z"/><path fill="url(#aR)" d="M589.63 552.092c-.347-.87-1.653-1.07-2.27-.391-.34.313-.375.792-.488 1.227-2.577.748-5.136 1.584-7.72 2.341-.453.218-.688-.34-1.045-.504-.844-.531-2.054.26-2.002 1.227-.061.975 1.158 1.758 2.01 1.236.584-.244.706-.914.801-1.463 2.699-.826 5.397-1.636 8.086-2.463.348.322.688.766 1.219.757 1.036.157 1.906-1.061 1.41-1.967z"/><path fill="none" stroke="#000" stroke-miterlimit="20" stroke-width=".08" d="M589.63 552.092c-.347-.87-1.653-1.07-2.27-.391-.34.313-.375.792-.488 1.227-2.577.748-5.136 1.584-7.72 2.341-.453.218-.688-.34-1.045-.504-.844-.531-2.054.26-2.002 1.227-.061.975 1.158 1.758 2.01 1.236.584-.244.706-.914.801-1.463 2.699-.826 5.397-1.636 8.086-2.463.348.322.688.766 1.219.757 1.036.157 1.906-1.061 1.41-1.967z"/></svg>