<svg xmlns="http://www.w3.org/2000/svg" width="118" height="26"><g opacity=".3" fill="#fff"><path d="M17.17 1.483c.07.065.324.228.565.364.241.135.481.29.533.342.083.085.094 1.436.094 11.373v11.276l-.148.127c-.136.117-.263.127-1.54.127H15.28l-.152-.172c-.137-.155-.154-.242-.183-.932l-.031-.762-.228.2c-.307.269-1.532.933-2.21 1.197-2.531.99-5.873.48-8.063-1.231-.81-.632-1.944-1.844-1.944-2.077 0-.038-.022-.08-.05-.091-.203-.089-1.03-1.727-1.203-2.384-.455-1.722-.576-3.728-.298-4.954.355-1.566.614-2.247 1.196-3.15.196-.302.355-.58.355-.617 0-.145 1.43-1.614 1.85-1.9.241-.165.495-.354.564-.42.45-.431 2.404-1.169 3.524-1.33 1.548-.223 3.742.14 5.026.829.483.26 1.151.7 1.28.843.061.069.138.125.17.125.036 0 .066-1.464.077-3.717.016-3.548.022-3.724.136-3.857.283-.332 1.27.044 2.075.791zm52.2-.931h1.494l.096.196c.138.284.142 3.839.004 4.122-.186.38-.518.368-1.08-.04a8.676 8.676 0 00-.779-.502 2.96 2.96 0 01-.47-.305 4.557 4.557 0 00-.45-.338c-.52-.35-.515-.336-.515-1.696 0-1.018.015-1.212.104-1.316.095-.11.23-.121 1.597-.121zm43.22 1.927c.172.136.454.348.627.473.971.7 2.55 2.557 3.015 3.541.123.262.262.521.308.576.046.055.244.488.439.964 1.204 2.927 1.159 6.861-.108 9.742-.17.384-.346.744-.392.8-.047.054-.188.315-.317.58-.128.264-.293.55-.366.634a27.3 27.3 0 00-.62.794c-.266.352-.51.65-.541.662-.03.013-.319.288-.641.612-.323.324-.643.615-.713.647-.07.03-.296.19-.504.355-1.219.966-3.404 1.866-5.171 2.132-1.104.166-10.445.147-10.957-.022-.437-.144-1.046-.555-1.19-.801a2.91 2.91 0 00-.252-.35c-.082-.096-.22-.374-.302-.618l-.152-.442V17.4c0-6.185 0-6.176.564-8.202.146-.525.74-2.045.82-2.097.045-.03.35-.574.56-1 .302-.612 1.612-2.147 2.42-2.837.617-.525 1.814-1.371 2.016-1.424.095-.024.333-.131.53-.237.757-.405 2.263-.886 3.153-1.005 2.55-.343 6.005.493 7.774 1.882zm-10.066 5.98c-.149.815-.045 4.881.141 5.513.584 1.976 2.769 3.227 4.608 2.639.907-.29 1.424-.696 2.227-1.749.175-.23.34-.612.481-1.116.174-.623.203-4.872.037-5.55-.359-1.47-1.453-2.641-2.82-3.019-2.135-.59-4.233.882-4.674 3.282zm-68.222-.577c.13.11.376.296.548.414.436.3 1.752 1.739 1.827 1.998.02.074.138.283.261.466.345.515.875 1.742.99 2.294l.194.932c.053.252.105.992.125 1.777l.036 1.346-.203.2-.202.201H24.362l.082.293c.254.894 1.084 1.965 2.069 2.671 2.023 1.45 4.668 1.237 6.54-.526.395-.373.544-.388 1.406-.148.318.089.928.245 1.353.347 1.518.363 1.44.769-.494 2.595-5.668 5.351-14.668 1.047-14.668-7.015 0-1.92.315-3.097 1.357-5.067.354-.67 1.613-2.133 2.032-2.362.12-.065.324-.215.455-.334.734-.664 2.866-1.466 4.212-1.584 1.834-.16 4.472.547 5.596 1.502zm18.371.978l.27.335.483-.52c1.01-1.084 1.965-1.658 3.44-2.068 1.708-.473 4.365.138 5.548 1.276.15.143.371.33.492.412.665.46 1.629 2.002 2.039 3.266.476 1.466.468 1.339.468 7.636v5.587l-.136.154c-.183.206-2.975.245-3.132.044-.07-.09-.091-1.103-.118-5.736l-.032-5.626-.172-.52c-1.312-3.958-5.7-4.03-6.9-.112l-.193.632-.035 5.575-.034 5.576-.175.16c-.263.24-2.842.253-3.051.015-.126-.143-.128-.205-.128-5.237 0-5.367-.02-5.832-.278-6.697-.208-.695-1.127-2.152-1.359-2.152-.024 0-.247-.133-.496-.296-.941-.616-1.98-.66-2.945-.128-.907.5-.852.451-1.49 1.351a5.497 5.497 0 00-.543.998l-.193.502-.03 5.687c-.033 5.838-.033 5.838-.286 6.014-.283.197-2.792.15-3.019-.057l-.175-.16-.018-5.376c-.022-6.705.004-6.954.926-8.842.756-1.55 2.754-3.55 3.544-3.55a.78.78 0 00.276-.098c.287-.157 1.189-.383 1.729-.434 2.147-.2 4.4.74 5.723 2.389zm18.03-2.392c.372.15.353-.36.353 9.313 0 9.429.008 9.15-.286 9.27-.302.123-2.769.042-2.935-.097l-.165-.138v-8.998c0-10.008-.03-9.28.393-9.367.286-.059 2.489-.045 2.64.017zM87.28 8.124c.614.45 1.71 1.581 1.943 2.004.09.165.298.51.46.765.519.817.745 1.43 1.1 2.993.63 2.768-.372 6.364-2.36 8.47-2.388 2.527-5.99 3.439-9.104 2.302-.598-.218-.778-.304-1.617-.775-2.022-1.133-3.926-3.953-4.26-6.306-.479-3.385.319-6.138 2.45-8.454.322-.352.714-.723.87-.825.155-.101.296-.206.313-.232.054-.083.705-.505 1.126-.73.543-.29 1.649-.657 2.416-.803 2.256-.426 4.712.16 6.663 1.591zM108.634 8l.194.432.019 2.294c.022 2.435.006 2.624-.279 3.226-.972 2.063-3.944 1.873-4.673-.3-.141-.42-.145-.496-.145-2.759V8.565l.164-.474c.264-.765.959-1.437 1.674-1.616 1.26-.315 2.499.305 3.046 1.525zm-1.932 1.29c-.152-.162-.268-.226-.413-.226-.145 0-.26.064-.414.226l-.213.227V13l.213.227c.326.346.666.307.934-.105.095-.145.107-.373.107-1.885v-1.72zM5.456 19.44c1.782 2.169 4.95 2.694 6.984 1.157.796-.6.96-.763 1.406-1.39 2.36-3.315.8-7.974-3.02-9.015-4.944-1.349-8.725 5.164-5.37 9.248zm20.134-7.673a3.498 3.498 0 01-.268.324c-.284.291-.705 1.041-.882 1.573l-.085.256h10.208l-.215-.535c-.602-1.49-1.888-2.66-3.51-3.19-1.688-.55-4.277.224-5.248 1.572zm51.359 2.49c-.537 2.193.164 4.631 1.683 5.849 1.018.815 1.338.989 2.222 1.205 5.308 1.296 8.894-5.467 5.073-9.566-.756-.812-1.354-1.184-2.427-1.514-2.776-.853-5.812 1.013-6.551 4.026zm34.574 1.226c-1.033 3.32-4.859 4.717-8.168 2.98-.545-.285-1.83-1.565-1.83-1.823 0-.029-.096-.226-.212-.439a5.43 5.43 0 01-.347-.827c-.169-.545-.307-.689-.664-.689-.709 0-.796.609-.254 1.758.113.24.228.511.255.603.143.49 1.217 1.668 2.137 2.345 1.337.985 3.784 1.45 5.322 1.014 1.256-.357 1.898-.66 2.595-1.223l.672-.54c.114-.092.385-.406.6-.698.217-.293.411-.548.433-.565.203-.169.873-1.955.873-2.33 0-.08-.096-.246-.214-.37-.475-.505-.873-.238-1.198.804z" opacity=".3"/><path d="M17.17 1.483c.07.065.324.228.565.364.241.135.481.29.533.342.083.085.094 1.436.094 11.373v11.276l-.148.127c-.136.117-.263.127-1.54.127H15.28l-.152-.172c-.137-.155-.154-.242-.183-.932l-.031-.762-.228.2c-.307.269-1.532.933-2.21 1.197-2.531.99-5.873.48-8.063-1.231-.81-.632-1.944-1.844-1.944-2.077 0-.038-.022-.08-.05-.091-.203-.089-1.03-1.727-1.203-2.384-.455-1.722-.576-3.728-.298-4.954.355-1.566.614-2.247 1.196-3.15.196-.302.355-.58.355-.617 0-.145 1.43-1.614 1.85-1.9.241-.165.495-.354.564-.42.45-.431 2.404-1.169 3.524-1.33 1.548-.223 3.742.14 5.026.829.483.26 1.151.7 1.28.843.061.069.138.125.17.125.036 0 .066-1.464.077-3.717.016-3.548.022-3.724.136-3.857.283-.332 1.27.044 2.075.791zm52.2-.931h1.494l.096.196c.138.284.142 3.839.004 4.122-.186.38-.518.368-1.08-.04a8.676 8.676 0 00-.779-.502 2.96 2.96 0 01-.47-.305 4.557 4.557 0 00-.45-.338c-.52-.35-.515-.336-.515-1.696 0-1.018.015-1.212.104-1.316.095-.11.23-.121 1.597-.121zm43.22 1.927c.172.136.454.348.627.473.971.7 2.55 2.557 3.015 3.541.123.262.262.521.308.576.046.055.244.488.439.964 1.204 2.927 1.159 6.861-.108 9.742-.17.384-.346.744-.392.8-.047.054-.188.315-.317.58-.128.264-.293.55-.366.634a27.3 27.3 0 00-.62.794c-.266.352-.51.65-.541.662-.03.013-.319.288-.641.612-.323.324-.643.615-.713.647-.07.03-.296.19-.504.355-1.219.966-3.404 1.866-5.171 2.132-1.104.166-10.445.147-10.957-.022-.437-.144-1.046-.555-1.19-.801a2.91 2.91 0 00-.252-.35c-.082-.096-.22-.374-.302-.618l-.152-.442V17.4c0-6.185 0-6.176.564-8.202.146-.525.74-2.045.82-2.097.045-.03.35-.574.56-1 .302-.612 1.612-2.147 2.42-2.837.617-.525 1.814-1.371 2.016-1.424.095-.024.333-.131.53-.237.757-.405 2.263-.886 3.153-1.005 2.55-.343 6.005.493 7.774 1.882zm-10.066 5.98c-.149.815-.045 4.881.141 5.513.584 1.976 2.769 3.227 4.608 2.639.907-.29 1.424-.696 2.227-1.749.175-.23.34-.612.481-1.116.174-.623.203-4.872.037-5.55-.359-1.47-1.453-2.641-2.82-3.019-2.135-.59-4.233.882-4.674 3.282zm-68.222-.577c.13.11.376.296.548.414.436.3 1.752 1.739 1.827 1.998.02.074.138.283.261.466.345.515.875 1.742.99 2.294l.194.932c.053.252.105.992.125 1.777l.036 1.346-.203.2-.202.201H24.362l.082.293c.254.894 1.084 1.965 2.069 2.671 2.023 1.45 4.668 1.237 6.54-.526.395-.373.544-.388 1.406-.148.318.089.928.245 1.353.347 1.518.363 1.44.769-.494 2.595-5.668 5.351-14.668 1.047-14.668-7.015 0-1.92.315-3.097 1.357-5.067.354-.67 1.613-2.133 2.032-2.362.12-.065.324-.215.455-.334.734-.664 2.866-1.466 4.212-1.584 1.834-.16 4.472.547 5.596 1.502zm18.371.978l.27.335.483-.52c1.01-1.084 1.965-1.658 3.44-2.068 1.708-.473 4.365.138 5.548 1.276.15.143.371.33.492.412.665.46 1.629 2.002 2.039 3.266.476 1.466.468 1.339.468 7.636v5.587l-.136.154c-.183.206-2.975.245-3.132.044-.07-.09-.091-1.103-.118-5.736l-.032-5.626-.172-.52c-1.312-3.958-5.7-4.03-6.9-.112l-.193.632-.035 5.575-.034 5.576-.175.16c-.263.24-2.842.253-3.051.015-.126-.143-.128-.205-.128-5.237 0-5.367-.02-5.832-.278-6.697-.208-.695-1.127-2.152-1.359-2.152-.024 0-.247-.133-.496-.296-.941-.616-1.98-.66-2.945-.128-.907.5-.852.451-1.49 1.351a5.497 5.497 0 00-.543.998l-.193.502-.03 5.687c-.033 5.838-.033 5.838-.286 6.014-.283.197-2.792.15-3.019-.057l-.175-.16-.018-5.376c-.022-6.705.004-6.954.926-8.842.756-1.55 2.754-3.55 3.544-3.55a.78.78 0 00.276-.098c.287-.157 1.189-.383 1.729-.434 2.147-.2 4.4.74 5.723 2.389zm18.03-2.392c.372.15.353-.36.353 9.313 0 9.429.008 9.15-.286 9.27-.302.123-2.769.042-2.935-.097l-.165-.138v-8.998c0-10.008-.03-9.28.393-9.367.286-.059 2.489-.045 2.64.017zM87.28 8.124c.614.45 1.71 1.581 1.943 2.004.09.165.298.51.46.765.519.817.745 1.43 1.1 2.993.63 2.768-.372 6.364-2.36 8.47-2.388 2.527-5.99 3.439-9.104 2.302-.598-.218-.778-.304-1.617-.775-2.022-1.133-3.926-3.953-4.26-6.306-.479-3.385.319-6.138 2.45-8.454.322-.352.714-.723.87-.825.155-.101.296-.206.313-.232.054-.083.705-.505 1.126-.73.543-.29 1.649-.657 2.416-.803 2.256-.426 4.712.16 6.663 1.591zM108.634 8l.194.432.019 2.294c.022 2.435.006 2.624-.279 3.226-.972 2.063-3.944 1.873-4.673-.3-.141-.42-.145-.496-.145-2.759V8.565l.164-.474c.264-.765.959-1.437 1.674-1.616 1.26-.315 2.499.305 3.046 1.525zm-1.932 1.29c-.152-.162-.268-.226-.413-.226-.145 0-.26.064-.414.226l-.213.227V13l.213.227c.326.346.666.307.934-.105.095-.145.107-.373.107-1.885v-1.72zM5.456 19.44c1.782 2.169 4.95 2.694 6.984 1.157.796-.6.96-.763 1.406-1.39 2.36-3.315.8-7.974-3.02-9.015-4.944-1.349-8.725 5.164-5.37 9.248zm20.134-7.673a3.498 3.498 0 01-.268.324c-.284.291-.705 1.041-.882 1.573l-.085.256h10.208l-.215-.535c-.602-1.49-1.888-2.66-3.51-3.19-1.688-.55-4.277.224-5.248 1.572zm51.359 2.49c-.537 2.193.164 4.631 1.683 5.849 1.018.815 1.338.989 2.222 1.205 5.308 1.296 8.894-5.467 5.073-9.566-.756-.812-1.354-1.184-2.427-1.514-2.776-.853-5.812 1.013-6.551 4.026zm34.574 1.226c-1.033 3.32-4.859 4.717-8.168 2.98-.545-.285-1.83-1.565-1.83-1.823 0-.029-.096-.226-.212-.439a5.43 5.43 0 01-.347-.827c-.169-.545-.307-.689-.664-.689-.709 0-.796.609-.254 1.758.113.24.228.511.255.603.143.49 1.217 1.668 2.137 2.345 1.337.985 3.784 1.45 5.322 1.014 1.256-.357 1.898-.66 2.595-1.223l.672-.54c.114-.092.385-.406.6-.698.217-.293.411-.548.433-.565.203-.169.873-1.955.873-2.33 0-.08-.096-.246-.214-.37-.475-.505-.873-.238-1.198.804z" opacity=".3"/><path d="M17.17 1.483c.07.065.324.228.565.364.241.135.481.29.533.342.083.085.094 1.436.094 11.373v11.276l-.148.127c-.136.117-.263.127-1.54.127H15.28l-.152-.172c-.137-.155-.154-.242-.183-.932l-.031-.762-.228.2c-.307.269-1.532.933-2.21 1.197-2.531.99-5.873.48-8.063-1.231-.81-.632-1.944-1.844-1.944-2.077 0-.038-.022-.08-.05-.091-.203-.089-1.03-1.727-1.203-2.384-.455-1.722-.576-3.728-.298-4.954.355-1.566.614-2.247 1.196-3.15.196-.302.355-.58.355-.617 0-.145 1.43-1.614 1.85-1.9.241-.165.495-.354.564-.42.45-.431 2.404-1.169 3.524-1.33 1.548-.223 3.742.14 5.026.829.483.26 1.151.7 1.28.843.061.069.138.125.17.125.036 0 .066-1.464.077-3.717.016-3.548.022-3.724.136-3.857.283-.332 1.27.044 2.075.791zm52.2-.931h1.494l.096.196c.138.284.142 3.839.004 4.122-.186.38-.518.368-1.08-.04a8.676 8.676 0 00-.779-.502 2.96 2.96 0 01-.47-.305 4.557 4.557 0 00-.45-.338c-.52-.35-.515-.336-.515-1.696 0-1.018.015-1.212.104-1.316.095-.11.23-.121 1.597-.121zm43.22 1.927c.172.136.454.348.627.473.971.7 2.55 2.557 3.015 3.541.123.262.262.521.308.576.046.055.244.488.439.964 1.204 2.927 1.159 6.861-.108 9.742-.17.384-.346.744-.392.8-.047.054-.188.315-.317.58-.128.264-.293.55-.366.634a27.3 27.3 0 00-.62.794c-.266.352-.51.65-.541.662-.03.013-.319.288-.641.612-.323.324-.643.615-.713.647-.07.03-.296.19-.504.355-1.219.966-3.404 1.866-5.171 2.132-1.104.166-10.445.147-10.957-.022-.437-.144-1.046-.555-1.19-.801a2.91 2.91 0 00-.252-.35c-.082-.096-.22-.374-.302-.618l-.152-.442V17.4c0-6.185 0-6.176.564-8.202.146-.525.74-2.045.82-2.097.045-.03.35-.574.56-1 .302-.612 1.612-2.147 2.42-2.837.617-.525 1.814-1.371 2.016-1.424.095-.024.333-.131.53-.237.757-.405 2.263-.886 3.153-1.005 2.55-.343 6.005.493 7.774 1.882zm-10.066 5.98c-.149.815-.045 4.881.141 5.513.584 1.976 2.769 3.227 4.608 2.639.907-.29 1.424-.696 2.227-1.749.175-.23.34-.612.481-1.116.174-.623.203-4.872.037-5.55-.359-1.47-1.453-2.641-2.82-3.019-2.135-.59-4.233.882-4.674 3.282zm-68.222-.577c.13.11.376.296.548.414.436.3 1.752 1.739 1.827 1.998.02.074.138.283.261.466.345.515.875 1.742.99 2.294l.194.932c.053.252.105.992.125 1.777l.036 1.346-.203.2-.202.201H24.362l.082.293c.254.894 1.084 1.965 2.069 2.671 2.023 1.45 4.668 1.237 6.54-.526.395-.373.544-.388 1.406-.148.318.089.928.245 1.353.347 1.518.363 1.44.769-.494 2.595-5.668 5.351-14.668 1.047-14.668-7.015 0-1.92.315-3.097 1.357-5.067.354-.67 1.613-2.133 2.032-2.362.12-.065.324-.215.455-.334.734-.664 2.866-1.466 4.212-1.584 1.834-.16 4.472.547 5.596 1.502zm18.371.978l.27.335.483-.52c1.01-1.084 1.965-1.658 3.44-2.068 1.708-.473 4.365.138 5.548 1.276.15.143.371.33.492.412.665.46 1.629 2.002 2.039 3.266.476 1.466.468 1.339.468 7.636v5.587l-.136.154c-.183.206-2.975.245-3.132.044-.07-.09-.091-1.103-.118-5.736l-.032-5.626-.172-.52c-1.312-3.958-5.7-4.03-6.9-.112l-.193.632-.035 5.575-.034 5.576-.175.16c-.263.24-2.842.253-3.051.015-.126-.143-.128-.205-.128-5.237 0-5.367-.02-5.832-.278-6.697-.208-.695-1.127-2.152-1.359-2.152-.024 0-.247-.133-.496-.296-.941-.616-1.98-.66-2.945-.128-.907.5-.852.451-1.49 1.351a5.497 5.497 0 00-.543.998l-.193.502-.03 5.687c-.033 5.838-.033 5.838-.286 6.014-.283.197-2.792.15-3.019-.057l-.175-.16-.018-5.376c-.022-6.705.004-6.954.926-8.842.756-1.55 2.754-3.55 3.544-3.55a.78.78 0 00.276-.098c.287-.157 1.189-.383 1.729-.434 2.147-.2 4.4.74 5.723 2.389zm18.03-2.392c.372.15.353-.36.353 9.313 0 9.429.008 9.15-.286 9.27-.302.123-2.769.042-2.935-.097l-.165-.138v-8.998c0-10.008-.03-9.28.393-9.367.286-.059 2.489-.045 2.64.017zM87.28 8.124c.614.45 1.71 1.581 1.943 2.004.09.165.298.51.46.765.519.817.745 1.43 1.1 2.993.63 2.768-.372 6.364-2.36 8.47-2.388 2.527-5.99 3.439-9.104 2.302-.598-.218-.778-.304-1.617-.775-2.022-1.133-3.926-3.953-4.26-6.306-.479-3.385.319-6.138 2.45-8.454.322-.352.714-.723.87-.825.155-.101.296-.206.313-.232.054-.083.705-.505 1.126-.73.543-.29 1.649-.657 2.416-.803 2.256-.426 4.712.16 6.663 1.591zM108.634 8l.194.432.019 2.294c.022 2.435.006 2.624-.279 3.226-.972 2.063-3.944 1.873-4.673-.3-.141-.42-.145-.496-.145-2.759V8.565l.164-.474c.264-.765.959-1.437 1.674-1.616 1.26-.315 2.499.305 3.046 1.525zm-1.932 1.29c-.152-.162-.268-.226-.413-.226-.145 0-.26.064-.414.226l-.213.227V13l.213.227c.326.346.666.307.934-.105.095-.145.107-.373.107-1.885v-1.72zM5.456 19.44c1.782 2.169 4.95 2.694 6.984 1.157.796-.6.96-.763 1.406-1.39 2.36-3.315.8-7.974-3.02-9.015-4.944-1.349-8.725 5.164-5.37 9.248zm20.134-7.673a3.498 3.498 0 01-.268.324c-.284.291-.705 1.041-.882 1.573l-.085.256h10.208l-.215-.535c-.602-1.49-1.888-2.66-3.51-3.19-1.688-.55-4.277.224-5.248 1.572zm51.359 2.49c-.537 2.193.164 4.631 1.683 5.849 1.018.815 1.338.989 2.222 1.205 5.308 1.296 8.894-5.467 5.073-9.566-.756-.812-1.354-1.184-2.427-1.514-2.776-.853-5.812 1.013-6.551 4.026zm34.574 1.226c-1.033 3.32-4.859 4.717-8.168 2.98-.545-.285-1.83-1.565-1.83-1.823 0-.029-.096-.226-.212-.439a5.43 5.43 0 01-.347-.827c-.169-.545-.307-.689-.664-.689-.709 0-.796.609-.254 1.758.113.24.228.511.255.603.143.49 1.217 1.668 2.137 2.345 1.337.985 3.784 1.45 5.322 1.014 1.256-.357 1.898-.66 2.595-1.223l.672-.54c.114-.092.385-.406.6-.698.217-.293.411-.548.433-.565.203-.169.873-1.955.873-2.33 0-.08-.096-.246-.214-.37-.475-.505-.873-.238-1.198.804z" opacity=".3"/><path d="M17.17 1.483c.07.065.324.228.565.364.241.135.481.29.533.342.083.085.094 1.436.094 11.373v11.276l-.148.127c-.136.117-.263.127-1.54.127H15.28l-.152-.172c-.137-.155-.154-.242-.183-.932l-.031-.762-.228.2c-.307.269-1.532.933-2.21 1.197-2.531.99-5.873.48-8.063-1.231-.81-.632-1.944-1.844-1.944-2.077 0-.038-.022-.08-.05-.091-.203-.089-1.03-1.727-1.203-2.384-.455-1.722-.576-3.728-.298-4.954.355-1.566.614-2.247 1.196-3.15.196-.302.355-.58.355-.617 0-.145 1.43-1.614 1.85-1.9.241-.165.495-.354.564-.42.45-.431 2.404-1.169 3.524-1.33 1.548-.223 3.742.14 5.026.829.483.26 1.151.7 1.28.843.061.069.138.125.17.125.036 0 .066-1.464.077-3.717.016-3.548.022-3.724.136-3.857.283-.332 1.27.044 2.075.791zm52.2-.931h1.494l.096.196c.138.284.142 3.839.004 4.122-.186.38-.518.368-1.08-.04a8.676 8.676 0 00-.779-.502 2.96 2.96 0 01-.47-.305 4.557 4.557 0 00-.45-.338c-.52-.35-.515-.336-.515-1.696 0-1.018.015-1.212.104-1.316.095-.11.23-.121 1.597-.121zm43.22 1.927c.172.136.454.348.627.473.971.7 2.55 2.557 3.015 3.541.123.262.262.521.308.576.046.055.244.488.439.964 1.204 2.927 1.159 6.861-.108 9.742-.17.384-.346.744-.392.8-.047.054-.188.315-.317.58-.128.264-.293.55-.366.634a27.3 27.3 0 00-.62.794c-.266.352-.51.65-.541.662-.03.013-.319.288-.641.612-.323.324-.643.615-.713.647-.07.03-.296.19-.504.355-1.219.966-3.404 1.866-5.171 2.132-1.104.166-10.445.147-10.957-.022-.437-.144-1.046-.555-1.19-.801a2.91 2.91 0 00-.252-.35c-.082-.096-.22-.374-.302-.618l-.152-.442V17.4c0-6.185 0-6.176.564-8.202.146-.525.74-2.045.82-2.097.045-.03.35-.574.56-1 .302-.612 1.612-2.147 2.42-2.837.617-.525 1.814-1.371 2.016-1.424.095-.024.333-.131.53-.237.757-.405 2.263-.886 3.153-1.005 2.55-.343 6.005.493 7.774 1.882zm-10.066 5.98c-.149.815-.045 4.881.141 5.513.584 1.976 2.769 3.227 4.608 2.639.907-.29 1.424-.696 2.227-1.749.175-.23.34-.612.481-1.116.174-.623.203-4.872.037-5.55-.359-1.47-1.453-2.641-2.82-3.019-2.135-.59-4.233.882-4.674 3.282zm-68.222-.577c.13.11.376.296.548.414.436.3 1.752 1.739 1.827 1.998.02.074.138.283.261.466.345.515.875 1.742.99 2.294l.194.932c.053.252.105.992.125 1.777l.036 1.346-.203.2-.202.201H24.362l.082.293c.254.894 1.084 1.965 2.069 2.671 2.023 1.45 4.668 1.237 6.54-.526.395-.373.544-.388 1.406-.148.318.089.928.245 1.353.347 1.518.363 1.44.769-.494 2.595-5.668 5.351-14.668 1.047-14.668-7.015 0-1.92.315-3.097 1.357-5.067.354-.67 1.613-2.133 2.032-2.362.12-.065.324-.215.455-.334.734-.664 2.866-1.466 4.212-1.584 1.834-.16 4.472.547 5.596 1.502zm18.371.978l.27.335.483-.52c1.01-1.084 1.965-1.658 3.44-2.068 1.708-.473 4.365.138 5.548 1.276.15.143.371.33.492.412.665.46 1.629 2.002 2.039 3.266.476 1.466.468 1.339.468 7.636v5.587l-.136.154c-.183.206-2.975.245-3.132.044-.07-.09-.091-1.103-.118-5.736l-.032-5.626-.172-.52c-1.312-3.958-5.7-4.03-6.9-.112l-.193.632-.035 5.575-.034 5.576-.175.16c-.263.24-2.842.253-3.051.015-.126-.143-.128-.205-.128-5.237 0-5.367-.02-5.832-.278-6.697-.208-.695-1.127-2.152-1.359-2.152-.024 0-.247-.133-.496-.296-.941-.616-1.98-.66-2.945-.128-.907.5-.852.451-1.49 1.351a5.497 5.497 0 00-.543.998l-.193.502-.03 5.687c-.033 5.838-.033 5.838-.286 6.014-.283.197-2.792.15-3.019-.057l-.175-.16-.018-5.376c-.022-6.705.004-6.954.926-8.842.756-1.55 2.754-3.55 3.544-3.55a.78.78 0 00.276-.098c.287-.157 1.189-.383 1.729-.434 2.147-.2 4.4.74 5.723 2.389zm18.03-2.392c.372.15.353-.36.353 9.313 0 9.429.008 9.15-.286 9.27-.302.123-2.769.042-2.935-.097l-.165-.138v-8.998c0-10.008-.03-9.28.393-9.367.286-.059 2.489-.045 2.64.017zM87.28 8.124c.614.45 1.71 1.581 1.943 2.004.09.165.298.51.46.765.519.817.745 1.43 1.1 2.993.63 2.768-.372 6.364-2.36 8.47-2.388 2.527-5.99 3.439-9.104 2.302-.598-.218-.778-.304-1.617-.775-2.022-1.133-3.926-3.953-4.26-6.306-.479-3.385.319-6.138 2.45-8.454.322-.352.714-.723.87-.825.155-.101.296-.206.313-.232.054-.083.705-.505 1.126-.73.543-.29 1.649-.657 2.416-.803 2.256-.426 4.712.16 6.663 1.591zM108.634 8l.194.432.019 2.294c.022 2.435.006 2.624-.279 3.226-.972 2.063-3.944 1.873-4.673-.3-.141-.42-.145-.496-.145-2.759V8.565l.164-.474c.264-.765.959-1.437 1.674-1.616 1.26-.315 2.499.305 3.046 1.525zm-1.932 1.29c-.152-.162-.268-.226-.413-.226-.145 0-.26.064-.414.226l-.213.227V13l.213.227c.326.346.666.307.934-.105.095-.145.107-.373.107-1.885v-1.72zM5.456 19.44c1.782 2.169 4.95 2.694 6.984 1.157.796-.6.96-.763 1.406-1.39 2.36-3.315.8-7.974-3.02-9.015-4.944-1.349-8.725 5.164-5.37 9.248zm20.134-7.673a3.498 3.498 0 01-.268.324c-.284.291-.705 1.041-.882 1.573l-.085.256h10.208l-.215-.535c-.602-1.49-1.888-2.66-3.51-3.19-1.688-.55-4.277.224-5.248 1.572zm51.359 2.49c-.537 2.193.164 4.631 1.683 5.849 1.018.815 1.338.989 2.222 1.205 5.308 1.296 8.894-5.467 5.073-9.566-.756-.812-1.354-1.184-2.427-1.514-2.776-.853-5.812 1.013-6.551 4.026zm34.574 1.226c-1.033 3.32-4.859 4.717-8.168 2.98-.545-.285-1.83-1.565-1.83-1.823 0-.029-.096-.226-.212-.439a5.43 5.43 0 01-.347-.827c-.169-.545-.307-.689-.664-.689-.709 0-.796.609-.254 1.758.113.24.228.511.255.603.143.49 1.217 1.668 2.137 2.345 1.337.985 3.784 1.45 5.322 1.014 1.256-.357 1.898-.66 2.595-1.223l.672-.54c.114-.092.385-.406.6-.698.217-.293.411-.548.433-.565.203-.169.873-1.955.873-2.33 0-.08-.096-.246-.214-.37-.475-.505-.873-.238-1.198.804z" opacity=".3"/><path d="M17.17 1.483c.07.065.324.228.565.364.241.135.481.29.533.342.083.085.094 1.436.094 11.373v11.276l-.148.127c-.136.117-.263.127-1.54.127H15.28l-.152-.172c-.137-.155-.154-.242-.183-.932l-.031-.762-.228.2c-.307.269-1.532.933-2.21 1.197-2.531.99-5.873.48-8.063-1.231-.81-.632-1.944-1.844-1.944-2.077 0-.038-.022-.08-.05-.091-.203-.089-1.03-1.727-1.203-2.384-.455-1.722-.576-3.728-.298-4.954.355-1.566.614-2.247 1.196-3.15.196-.302.355-.58.355-.617 0-.145 1.43-1.614 1.85-1.9.241-.165.495-.354.564-.42.45-.431 2.404-1.169 3.524-1.33 1.548-.223 3.742.14 5.026.829.483.26 1.151.7 1.28.843.061.069.138.125.17.125.036 0 .066-1.464.077-3.717.016-3.548.022-3.724.136-3.857.283-.332 1.27.044 2.075.791zm52.2-.931h1.494l.096.196c.138.284.142 3.839.004 4.122-.186.38-.518.368-1.08-.04a8.676 8.676 0 00-.779-.502 2.96 2.96 0 01-.47-.305 4.557 4.557 0 00-.45-.338c-.52-.35-.515-.336-.515-1.696 0-1.018.015-1.212.104-1.316.095-.11.23-.121 1.597-.121zm43.22 1.927c.172.136.454.348.627.473.971.7 2.55 2.557 3.015 3.541.123.262.262.521.308.576.046.055.244.488.439.964 1.204 2.927 1.159 6.861-.108 9.742-.17.384-.346.744-.392.8-.047.054-.188.315-.317.58-.128.264-.293.55-.366.634a27.3 27.3 0 00-.62.794c-.266.352-.51.65-.541.662-.03.013-.319.288-.641.612-.323.324-.643.615-.713.647-.07.03-.296.19-.504.355-1.219.966-3.404 1.866-5.171 2.132-1.104.166-10.445.147-10.957-.022-.437-.144-1.046-.555-1.19-.801a2.91 2.91 0 00-.252-.35c-.082-.096-.22-.374-.302-.618l-.152-.442V17.4c0-6.185 0-6.176.564-8.202.146-.525.74-2.045.82-2.097.045-.03.35-.574.56-1 .302-.612 1.612-2.147 2.42-2.837.617-.525 1.814-1.371 2.016-1.424.095-.024.333-.131.53-.237.757-.405 2.263-.886 3.153-1.005 2.55-.343 6.005.493 7.774 1.882zm-10.066 5.98c-.149.815-.045 4.881.141 5.513.584 1.976 2.769 3.227 4.608 2.639.907-.29 1.424-.696 2.227-1.749.175-.23.34-.612.481-1.116.174-.623.203-4.872.037-5.55-.359-1.47-1.453-2.641-2.82-3.019-2.135-.59-4.233.882-4.674 3.282zm-68.222-.577c.13.11.376.296.548.414.436.3 1.752 1.739 1.827 1.998.02.074.138.283.261.466.345.515.875 1.742.99 2.294l.194.932c.053.252.105.992.125 1.777l.036 1.346-.203.2-.202.201H24.362l.082.293c.254.894 1.084 1.965 2.069 2.671 2.023 1.45 4.668 1.237 6.54-.526.395-.373.544-.388 1.406-.148.318.089.928.245 1.353.347 1.518.363 1.44.769-.494 2.595-5.668 5.351-14.668 1.047-14.668-7.015 0-1.92.315-3.097 1.357-5.067.354-.67 1.613-2.133 2.032-2.362.12-.065.324-.215.455-.334.734-.664 2.866-1.466 4.212-1.584 1.834-.16 4.472.547 5.596 1.502zm18.371.978l.27.335.483-.52c1.01-1.084 1.965-1.658 3.44-2.068 1.708-.473 4.365.138 5.548 1.276.15.143.371.33.492.412.665.46 1.629 2.002 2.039 3.266.476 1.466.468 1.339.468 7.636v5.587l-.136.154c-.183.206-2.975.245-3.132.044-.07-.09-.091-1.103-.118-5.736l-.032-5.626-.172-.52c-1.312-3.958-5.7-4.03-6.9-.112l-.193.632-.035 5.575-.034 5.576-.175.16c-.263.24-2.842.253-3.051.015-.126-.143-.128-.205-.128-5.237 0-5.367-.02-5.832-.278-6.697-.208-.695-1.127-2.152-1.359-2.152-.024 0-.247-.133-.496-.296-.941-.616-1.98-.66-2.945-.128-.907.5-.852.451-1.49 1.351a5.497 5.497 0 00-.543.998l-.193.502-.03 5.687c-.033 5.838-.033 5.838-.286 6.014-.283.197-2.792.15-3.019-.057l-.175-.16-.018-5.376c-.022-6.705.004-6.954.926-8.842.756-1.55 2.754-3.55 3.544-3.55a.78.78 0 00.276-.098c.287-.157 1.189-.383 1.729-.434 2.147-.2 4.4.74 5.723 2.389zm18.03-2.392c.372.15.353-.36.353 9.313 0 9.429.008 9.15-.286 9.27-.302.123-2.769.042-2.935-.097l-.165-.138v-8.998c0-10.008-.03-9.28.393-9.367.286-.059 2.489-.045 2.64.017zM87.28 8.124c.614.45 1.71 1.581 1.943 2.004.09.165.298.51.46.765.519.817.745 1.43 1.1 2.993.63 2.768-.372 6.364-2.36 8.47-2.388 2.527-5.99 3.439-9.104 2.302-.598-.218-.778-.304-1.617-.775-2.022-1.133-3.926-3.953-4.26-6.306-.479-3.385.319-6.138 2.45-8.454.322-.352.714-.723.87-.825.155-.101.296-.206.313-.232.054-.083.705-.505 1.126-.73.543-.29 1.649-.657 2.416-.803 2.256-.426 4.712.16 6.663 1.591zM108.634 8l.194.432.019 2.294c.022 2.435.006 2.624-.279 3.226-.972 2.063-3.944 1.873-4.673-.3-.141-.42-.145-.496-.145-2.759V8.565l.164-.474c.264-.765.959-1.437 1.674-1.616 1.26-.315 2.499.305 3.046 1.525zm-1.932 1.29c-.152-.162-.268-.226-.413-.226-.145 0-.26.064-.414.226l-.213.227V13l.213.227c.326.346.666.307.934-.105.095-.145.107-.373.107-1.885v-1.72zM5.456 19.44c1.782 2.169 4.95 2.694 6.984 1.157.796-.6.96-.763 1.406-1.39 2.36-3.315.8-7.974-3.02-9.015-4.944-1.349-8.725 5.164-5.37 9.248zm20.134-7.673a3.498 3.498 0 01-.268.324c-.284.291-.705 1.041-.882 1.573l-.085.256h10.208l-.215-.535c-.602-1.49-1.888-2.66-3.51-3.19-1.688-.55-4.277.224-5.248 1.572zm51.359 2.49c-.537 2.193.164 4.631 1.683 5.849 1.018.815 1.338.989 2.222 1.205 5.308 1.296 8.894-5.467 5.073-9.566-.756-.812-1.354-1.184-2.427-1.514-2.776-.853-5.812 1.013-6.551 4.026zm34.574 1.226c-1.033 3.32-4.859 4.717-8.168 2.98-.545-.285-1.83-1.565-1.83-1.823 0-.029-.096-.226-.212-.439a5.43 5.43 0 01-.347-.827c-.169-.545-.307-.689-.664-.689-.709 0-.796.609-.254 1.758.113.24.228.511.255.603.143.49 1.217 1.668 2.137 2.345 1.337.985 3.784 1.45 5.322 1.014 1.256-.357 1.898-.66 2.595-1.223l.672-.54c.114-.092.385-.406.6-.698.217-.293.411-.548.433-.565.203-.169.873-1.955.873-2.33 0-.08-.096-.246-.214-.37-.475-.505-.873-.238-1.198.804z" opacity=".3"/></g></svg>