<svg xmlns="http://www.w3.org/2000/svg" width="56" height="26"><path fill="#fff" d="M9.987 11.368a.681.681 0 00-.658-.141l-6.232 1.966 8.905-8.517a.689.689 0 00-.019-1.011L8.659.695a.688.688 0 00-1.049.16L.375 13.007a.53.53 0 00.102.667l1.41 1.262c.174.154.413.21.637.148l5.049-1.407-5.81 9.13c-.281.442.3.92.678.558l9.707-9.306a.53.53 0 00-.014-.776zm45.321-1.306l-.964-.86a.318.318 0 00-.51.127l-1.982 5.348c-.95 2.562-2.075 3.44-2.781 3.44-.226 0-.547-.165-.547-.711 0-.186.033-.579.263-1.199l1.889-5.091a.962.962 0 00-.262-1.054l-.965-.86a.318.318 0 00-.509.127l-1.982 5.348c-.95 2.562-2.075 3.44-2.78 3.44-.227 0-.548-.165-.548-.711 0-.186.033-.579.262-1.199l4.125-11.133a.963.963 0 00-.261-1.053l-.965-.86a.318.318 0 00-.51.126l-4.22 11.39c-.3.809-.441 1.632-.441 2.11 0 1.621 1.094 2.551 2.272 2.551.883 0 1.859-.565 2.742-1.728.302 1.103 1.195 1.728 2.153 1.728.533 0 1.101-.208 1.663-.626l-1.389 3.743a6.339 6.339 0 00-4.591-.327c-.185.057-.147.327.044.345 1.975.186 3.6 1.04 4.8 2.644a.648.648 0 001.125-.163l5.13-13.837a.963.963 0 00-.26-1.055zm-20.699 8.051c-.387 0-.675-.38-.675-.946 0-.19.059-.64.29-1.272 1.326-3.458 3.13-5.335 3.939-5.335.534 0 .615.556.615 1.218 0 2.7-2.407 6.333-4.169 6.333zM38.9 8.946c-.954 0-1.841.548-2.634 1.385l2.025-5.509a.987.987 0 00-.264-1.073l-.976-.877a.318.318 0 00-.514.13l-4.263 11.605c-.303.825-.444 1.662-.444 2.15 0 1.572 1.1 2.6 2.596 2.6 3.53 0 6.715-4.186 6.715-7.561-.002-1.653-.798-2.85-2.24-2.85zm-13.306 9.167c-.388 0-.676-.38-.676-.946 0-.19.059-.64.29-1.272 1.328-3.458 3.134-5.335 3.944-5.335.535 0 .617.556.617 1.218-.001 2.7-2.41 6.333-4.176 6.333zm3.686-13.29a.986.986 0 00-.264-1.074l-.977-.877a.32.32 0 00-.515.13l-4.268 11.605c-.961 2.61-2.099 3.504-2.813 3.504-.228 0-.552-.166-.552-.724 0-.189.033-.589.265-1.221l1.908-5.188a.986.986 0 00-.264-1.074l-.975-.876a.32.32 0 00-.515.13l-2.005 5.449c-.96 2.61-2.098 3.504-2.811 3.504-.229 0-.554-.166-.554-.724 0-.189.034-.589.266-1.221l1.908-5.188a.985.985 0 00-.266-1.073l-.974-.877a.32.32 0 00-.515.13l-2.004 5.449c-.303.825-.445 1.662-.445 2.15 0 1.652 1.105 2.6 2.297 2.6.893 0 1.879-.577 2.772-1.762.306 1.125 1.208 1.761 2.176 1.761.896 0 1.887-.579 2.78-1.771.32 1.09 1.26 1.771 2.472 1.771 3.535 0 6.726-4.185 6.726-7.56 0-1.653-.798-2.85-2.242-2.85-.956 0-1.844.548-2.638 1.385z" opacity=".3"/></svg>