<svg xmlns="http://www.w3.org/2000/svg" width="106" height="24"><g opacity=".3" fill="#fff"><path d="M96.75 16.847c-4.66 0-8.45-3.786-8.45-8.439V-.03h16.9v8.438c0 4.653-3.791 8.439-8.45 8.439zM89.836 1.504v6.904c0 3.807 3.101 6.904 6.914 6.904 3.811 0 6.913-3.097 6.913-6.904V1.504z" opacity=".3"/><path d="M100.592 5.08H92.91v1.534h1.05l-.532 4.252h1.548l.533-4.252h2.484l.532 4.252h1.548l-.531-4.252h1.05zM9.675 2.5c4.532 0 6.95 2.113 6.95 5.13 0 2.414-1.813 4.225-4.23 4.89v.06c3.777.935 5.137 3.137 5.137 5.461 0 3.32-2.418 5.583-6.95 5.583H.61v-.603c1.813 0 1.813 0 1.813-1.962V5.065c0-1.962 0-1.962-1.813-1.962V2.5h9.065zm-1.813 9.958c2.72 0 3.777-1.81 3.777-4.677 0-2.565-1.058-4.678-2.87-4.678H7.257v9.355zM7.258 23.02h2.115c2.417 0 3.173-2.414 3.173-5.13 0-2.715-1.36-4.828-4.08-4.828H7.258zm11.482-6.783c0-5.13 4.23-7.997 8.007-7.997 3.475 0 6.618 1.509 5.711 6.639h-8.944c0 4.074 2.327 5.582 4.593 5.582 2.72 0 3.929-1.508 4.533-2.565h.302c-.604 3.017-2.72 6.035-6.496 6.035-4.986 0-7.706-3.62-7.706-7.694zm9.216-1.962c.514-2.052.937-5.432-1.36-5.432-1.722 0-2.96 1.6-3.082 5.432zm17.366-1.811c0-1.357-.906-1.81-1.812-1.81-.937 0-1.964.453-3.022 1.358v9.052c0 1.962 0 1.962 1.813 1.962v.603H33.84v-.603c1.813 0 1.813 0 1.813-1.962V11.56c0-1.509 0-1.509-1.51-1.509v-.452l6.194-1.358h.241l-.09 3.168h.06c1.148-1.961 3.324-3.168 5.53-3.168 2.024 0 4.08 1.207 4.08 4.527v8.298c0 1.962 0 1.962 1.812 1.962v.604h-7.856v-.604c1.209 0 1.209 0 1.209-1.962zm16.625 7.998c2.72 0 3.928-1.509 4.533-2.565h.302c-.604 3.017-2.72 6.035-6.497 6.035-4.986 0-7.705-3.621-7.705-7.695 0-5.13 4.23-7.997 8.007-7.997 3.778 0 5.772 1.841 5.772 3.772 0 1.056-.483 2.112-2.296 2.112-1.51 0-1.844-.935-1.813-1.569.151-2.203 0-3.712-1.813-3.712-2.115 0-3.083 2.807-3.083 6.307 0 3.954 2.327 5.312 4.593 5.312zm17.225-8.002c0-1.357-.906-1.81-1.813-1.81-.936 0-1.964.453-3.021 1.358v9.052c0 1.962 0 1.962 1.813 1.962v.604H67.69v-.604c1.813 0 1.813 0 1.813-1.962V3.71c0-1.51 0-1.51-1.51-1.51v-.452L74.097.39h.241v11.014h.06c1.149-1.961 3.324-3.168 5.53-3.168 2.025 0 4.08 1.207 4.08 4.527v8.298c0 1.962 0 1.962 1.814 1.962v.604h-7.858v-.604c1.208 0 1.208 0 1.208-1.962z" opacity=".3"/></g></svg>