<svg xmlns="http://www.w3.org/2000/svg" width="118" height="26"><path fill="#fff" d="M8.929 14.167l6.946 10.969a.866.866 0 00.758.39h2.573a.866.866 0 00.818-.547.885.885 0 00.065-.341V1.409a.902.902 0 00-.6-.84.884.884 0 00-.986.288L8.929 13.1a.972.972 0 000 1.066zM1.12 25.514h4.583a.867.867 0 00.818-.546.885.885 0 00.065-.342v-5.89a.905.905 0 00-.603-.837.886.886 0 00-.985.286L.415 24.076a.906.906 0 00.242 1.299.89.89 0 00.464.14zm81.845-13.241a1.603 1.603 0 00-.171-.181l-.095-.081-.049-.043a4.131 4.131 0 00-.707-.483 4.628 4.628 0 00-.862-.407 5.743 5.743 0 00-.946-.252 5.51 5.51 0 00-2.494.128 5.782 5.782 0 00-2.561 1.506c-.35.357-.66.752-.921 1.18-.266.43-.47.896-.605 1.385a5.68 5.68 0 000 3.091c.139.487.342.952.605 1.384.262.427.57.823.92 1.18a5.92 5.92 0 001.18.916c.436.247.9.444 1.38.589.832.25 1.71.294 2.563.128.328-.055.648-.147.955-.274.295-.122.58-.265.853-.429.27-.163.532-.343.782-.538a2.14 2.14 0 00.201-.203l.032-.037a.719.719 0 00.133-.244l.013-.073a.614.614 0 00-.08-.335l-.028-.045a.702.702 0 00-.074-.101l-.074-.102c-.15-.203-.29-.406-.442-.593a.635.635 0 00-.234-.17.427.427 0 00-.276 0 1.163 1.163 0 00-.344.237l-.133.114c-.132.11-.202.18-.385.31a2.846 2.846 0 01-.532.324c-.203.104-.42.18-.643.227-.735.16-1.502.08-2.188-.231a3.954 3.954 0 01-2.007-2.058 3.65 3.65 0 010-2.963 4.11 4.11 0 01.822-1.244 4.336 4.336 0 011.187-.849 3.2 3.2 0 012.047-.243c.231.053.458.125.677.215.21.09.412.195.605.317.403.24.858.926 1.3.382l.638-.866a.38.38 0 00.067-.29.575.575 0 00-.11-.278zM43.67 21.485a.66.66 0 01-.095.664.63.63 0 01-.544.253h-1.007a.635.635 0 01-.59-.406l-1.671-3.954h-8.494l-1.68 3.954a.625.625 0 01-.589.392h-1.034a.626.626 0 01-.542-.3.625.625 0 01-.04-.622l7.002-16.024a.637.637 0 01.587-.392h1.12a.635.635 0 01.589.406zM38.936 16L35.56 8.038l-3.367 7.9-.028.062zm68.711-1.216c.193.63.28 1.29.256 1.948 0 .39-.2.61-.552.61l-8.584.018h-.057l.01.053c.07.42.19.83.361 1.218.196.36.46.677.78.933.328.251.693.451 1.08.593a3.67 3.67 0 003.204-.364c.273-.187.519-.413.73-.67a.466.466 0 01.368-.173h1.67a.3.3 0 01.257.159.368.368 0 01-.032.388l-.019.04c-.217.42-.494.805-.824 1.142-.346.35-.73.66-1.147.92a5.513 5.513 0 01-4.185.644 5.801 5.801 0 01-1.21-.449 4.14 4.14 0 01-1.083-.7 5.78 5.78 0 01-.91-.972 5.948 5.948 0 01-.983-2.665 5.522 5.522 0 01.124-2.388c.123-.488.308-.959.55-1.4.227-.433.515-.831.854-1.182.346-.351.73-.66 1.147-.922a5.348 5.348 0 011.35-.59 5.465 5.465 0 012.837-.054 6.01 6.01 0 011.21.45c.394.175.76.41 1.081.7.34.288.646.614.91.973.361.532.633 1.12.807 1.74zm-1.767.766l-.012-.055a3.266 3.266 0 00-.36-.96 3.064 3.064 0 00-.783-.939 4.094 4.094 0 00-1.08-.593 3.67 3.67 0 00-3.212.368c-.404.277-.753.63-1.028 1.038a4.19 4.19 0 00-.514 1.115l-.018.059 6.947-.033zm-49.885 5.116a5.72 5.72 0 01-1.179.91 6 6 0 01-1.386.59 5.49 5.49 0 01-3.728-.235 5.744 5.744 0 01-1.36-.859l-.075-.063v3.94a.559.559 0 01-.159.407.602.602 0 01-.427.16h-.897a.549.549 0 01-.515-.356.561.561 0 01-.037-.218V11.458a.534.534 0 01.356-.548.523.523 0 01.23-.024h.879a.51.51 0 01.545.343.523.523 0 01.025.23v.625l.075-.063c.417-.353.88-.648 1.376-.875a5.495 5.495 0 013.73-.236c.478.141.937.34 1.368.591A5.887 5.887 0 0157.486 15a5.704 5.704 0 010 3.09 6.095 6.095 0 01-.586 1.397 6.446 6.446 0 01-.905 1.18zM53.33 20.1c.44-.207.834-.5 1.163-.859.33-.368.598-.79.792-1.247a3.805 3.805 0 000-2.937 4.127 4.127 0 00-.79-1.219 3.977 3.977 0 00-1.167-.843 3.36 3.36 0 00-2.847 0 3.923 3.923 0 00-1.183.845 4.134 4.134 0 00-.806 1.219 3.83 3.83 0 000 2.939c.192.46.465.88.806 1.241.332.365.735.658 1.183.861a3.354 3.354 0 002.85 0zm8.208-9.198a.509.509 0 01.54.352.522.522 0 01.022.23v.61l.08-.083a5.99 5.99 0 011.377-.876 5.498 5.498 0 013.73-.235c.478.141.938.34 1.37.591a5.87 5.87 0 012.668 3.498 5.673 5.673 0 010 3.09 6.124 6.124 0 01-.586 1.397 6.435 6.435 0 01-.903 1.18 5.909 5.909 0 01-1.179.92 6.032 6.032 0 01-1.386.59 5.487 5.487 0 01-3.728-.235c-.492-.22-.95-.51-1.362-.859l-.075-.063v3.94a.55.55 0 01-.159.407.601.601 0 01-.427.16h-.895a.544.544 0 01-.552-.566V11.485a.533.533 0 01.353-.559.522.522 0 01.233-.024zm.508 5.64c.002.505.103 1.003.298 1.467.191.46.465.88.806 1.241.332.364.734.657 1.18.861a3.368 3.368 0 002.852 0c.44-.208.834-.5 1.163-.859.333-.368.6-.79.792-1.249a3.79 3.79 0 000-2.937 4.119 4.119 0 00-.79-1.219 3.994 3.994 0 00-1.183-.845 3.36 3.36 0 00-2.848 0 3.943 3.943 0 00-1.178.853 4.165 4.165 0 00-.806 1.219c-.19.466-.288.965-.286 1.469zm32.499-5.223a.53.53 0 00-.155-.43.517.517 0 00-.432-.143h-.884a.511.511 0 00-.545.343c-.025.074-.034.152-.025.23v6.463a2.42 2.42 0 01-.239 1.095c-.14.312-.346.59-.604.813a2.951 2.951 0 01-.84.49 2.665 2.665 0 01-2.12-.11 2.27 2.27 0 01-.786-.68 2.406 2.406 0 01-.429-.913 4.489 4.489 0 01-.133-1.032v-5.96a1.039 1.039 0 00-.131-.558.68.68 0 00-.558-.203h-.637a.691.691 0 00-.514.203.794.794 0 00-.201.587v5.95a6.08 6.08 0 00.286 1.915c.186.576.479 1.111.864 1.576a3.94 3.94 0 001.411 1.056 5.165 5.165 0 002.982.287 4.58 4.58 0 00.788-.27c.237-.111.456-.256.65-.431l.14-.13.077-.075v.453a.5.5 0 00.14.361.544.544 0 00.446.203h.894a.538.538 0 00.393-.158.486.486 0 00.162-.406zm22.485 6.325a2.97 2.97 0 00-.79-1.016 4.786 4.786 0 00-1.209-.725 8.437 8.437 0 00-1.527-.475 5.366 5.366 0 01-.75-.23 2.884 2.884 0 01-.625-.32 1.42 1.42 0 01-.58-.69 1.08 1.08 0 010-.647c.07-.238.369-.892 1.521-.965 1.103-.07 1.657.514 1.848.774.029.036.298.388.492.61a.58.58 0 00.115.08.506.506 0 00.481-.063l.674-.503a.495.495 0 00.239-.427v-.02a1.15 1.15 0 00-.153-.368 8.937 8.937 0 00-.645-.825 3.191 3.191 0 00-.713-.627 3.281 3.281 0 00-.895-.388 4.788 4.788 0 00-2.724.105 3.352 3.352 0 00-1.21.66 2.955 2.955 0 00-.791 1.04 3.203 3.203 0 00-.037 2.57c.166.37.41.699.716.963.33.284.691.528 1.078.725.453.215.926.387 1.41.516.143.032.287.071.436.112.149.04.294.079.44.113.262.064.514.158.753.28.2.097.378.236.521.407a1.097 1.097 0 01-.021 1.257c-.147.19-.328.35-.532.471a2.61 2.61 0 01-.672.277c-.397.09-.81.09-1.208 0a3.076 3.076 0 01-.605-.228 2.601 2.601 0 01-.542-.365 2.979 2.979 0 01-.39-.553.866.866 0 00-.223-.309.506.506 0 00-.558-.063l-.806.384a.533.533 0 00-.288.274.45.45 0 00-.02.254c.008.086.029.17.062.248a3.397 3.397 0 001.577 1.828c.354.213.74.367 1.142.457.924.22 1.888.19 2.797-.09a3.764 3.764 0 001.32-.673c.377-.288.68-.663.884-1.093a3.267 3.267 0 00.008-2.742z" opacity=".3"/></svg>