<svg xmlns="http://www.w3.org/2000/svg" width="92" height="26"><path fill="#fff" d="M22.742 6.771l-.001-.002-.004-.004a1.705 1.705 0 00-.082-.125l-.024-.031a1.68 1.68 0 00-.072-.088c-.014-.017-.03-.033-.044-.048a2.142 2.142 0 00-.123-.117 2.473 2.473 0 00-.13-.1 2.263 2.263 0 00-.136-.085 1.438 1.438 0 00-.204-.097 1.9 1.9 0 00-.094-.033l-.055-.017a1.587 1.587 0 00-.111-.028l-.04-.009a1.715 1.715 0 00-.14-.02l-.015-.002a1.684 1.684 0 00-1 .208l-8.776 4.964-6.276-3.55 6.282-3.554L15.885 6.4c.796.45 1.813.183 2.273-.596.46-.78.187-1.778-.61-2.228L12.53.738a1.694 1.694 0 00-1.664 0l-9.57 5.414a1.612 1.612 0 00-.042 2.844l9.607 5.435.004.002c.05.028.102.053.155.075.015.007.029.015.044.02.032.013.065.022.097.033.174.057.352.09.53.09h.003c.182 0 .365-.034.542-.094.028-.01.057-.017.085-.028l.05-.023c.05-.022.101-.046.15-.073l.004-.002 7.114-4.023v7.106l-7.944 4.493-7.943-4.493v-4.493c0-.9-.746-1.63-1.664-1.63-.92 0-1.664.73-1.664 1.63v5.435c0 .582.316 1.12.831 1.411l9.608 5.435a1.691 1.691 0 001.664 0l9.608-5.435c.515-.291.832-.829.832-1.411V7.586c0-.297-.082-.575-.224-.815zm8.856 9.119a6.69 6.69 0 001.691.8 5.796 5.796 0 001.692.261c.556 0 1.004-.127 1.345-.383.341-.255.512-.586.512-.992 0-.337-.136-.6-.408-.792a4.434 4.434 0 00-1.024-.514c-.41-.15-.853-.305-1.327-.461a5.925 5.925 0 01-1.327-.627 3.299 3.299 0 01-1.024-1.036c-.272-.43-.408-.992-.408-1.689 0-.534.11-1.021.33-1.462.22-.441.526-.822.92-1.14.393-.32.864-.567 1.414-.74a5.979 5.979 0 011.813-.262 8.855 8.855 0 013.314.644v2.542a6.71 6.71 0 00-1.562-.67 5.734 5.734 0 00-1.544-.218c-.532 0-.963.116-1.293.348-.33.233-.494.54-.494.923 0 .325.136.58.408.766.271.186.61.351 1.015.497.405.145.847.296 1.327.452.48.157.923.369 1.328.636.404.267.743.618 1.015 1.053.271.435.407 1.007.407 1.715 0 .546-.112 1.048-.338 1.506a3.48 3.48 0 01-.937 1.175 4.379 4.379 0 01-1.431.758c-.556.18-1.163.27-1.822.27-1.215 0-2.412-.261-3.592-.784zm8.964-9.368h2.828v4.423c.752-.546 1.544-.819 2.377-.819.451 0 .868.079 1.25.235.381.157.711.378.989.662.277.284.494.624.65 1.018.157.395.235.825.235 1.289v5.71h-2.829v-5.188c0-.36-.113-.656-.338-.888a1.147 1.147 0 00-.859-.348c-.52 0-1.012.232-1.475.696v5.729h-2.828zm9.484 3.813h2.829v8.706h-2.829zm-.138-2.315c0-.465.144-.839.433-1.123.29-.285.665-.427 1.128-.427.44 0 .807.142 1.102.427.295.284.443.658.443 1.123 0 .44-.148.806-.443 1.096a1.51 1.51 0 01-1.102.436c-.463 0-.838-.145-1.128-.436-.289-.29-.433-.655-.433-1.096zm10.109 6.668c0-.638-.16-1.152-.477-1.54a1.528 1.528 0 00-1.241-.584c-.509 0-.966.203-1.37.61v3.029c.404.406.861.61 1.37.61.509 0 .923-.198 1.24-.593.319-.395.478-.905.478-1.532zM54.1 10.335h2.828v.47c.66-.452 1.336-.679 2.03-.679.579 0 1.11.113 1.597.34.486.226.902.54 1.25.94.346.4.615.88.806 1.436.191.558.287 1.173.287 1.846s-.096 1.288-.287 1.845a4.288 4.288 0 01-.807 1.437c-.347.4-.763.714-1.25.94a3.733 3.733 0 01-1.596.34c-.694 0-1.37-.227-2.03-.68v4.284H54.1zm12.574 6.477h1.856c.44 0 .8-.13 1.084-.392.284-.26.426-.595.426-1 0-.407-.142-.74-.426-1.002-.283-.261-.645-.392-1.084-.392h-1.856zm0-4.945h1.613c.405 0 .74-.121 1.006-.365s.4-.552.4-.923c0-.383-.134-.694-.4-.932-.266-.237-.601-.356-1.006-.356h-1.613zm-2.76-4.805h4.91a4.17 4.17 0 011.459.244c.44.162.82.389 1.144.679a3.059 3.059 0 011.025 2.315c0 .592-.14 1.12-.417 1.585a2.518 2.518 0 01-1.145 1.027c.625.232 1.107.595 1.449 1.088a2.91 2.91 0 01.512 1.698c0 .487-.093.937-.278 1.35a3.132 3.132 0 01-.773 1.061 3.49 3.49 0 01-1.18.688 4.45 4.45 0 01-1.5.244h-5.206zm9.277 7.626c0-.673.115-1.288.347-1.846a4.196 4.196 0 01.971-1.436 4.5 4.5 0 011.484-.94c.573-.227 1.2-.34 1.883-.34.682 0 1.31.113 1.882.34a4.41 4.41 0 011.476.94c.41.4.73.88.962 1.436.232.558.347 1.173.347 1.846a4.79 4.79 0 01-.347 1.837 4.25 4.25 0 01-.963 1.445 4.41 4.41 0 01-1.475.94 5.08 5.08 0 01-1.882.34c-.683 0-1.31-.113-1.883-.34a4.5 4.5 0 01-1.484-.94c-.416-.4-.74-.882-.971-1.445a4.779 4.779 0 01-.347-1.837zm2.897 0c0 .662.165 1.193.495 1.593.33.4.76.6 1.292.6.521 0 .95-.2 1.285-.6.335-.4.503-.931.503-1.593 0-.662-.168-1.193-.503-1.593-.336-.4-.764-.6-1.284-.6-.533 0-.964.2-1.293.6-.33.4-.495.931-.495 1.593zm13.06 0c0-.638-.16-1.152-.478-1.54a1.526 1.526 0 00-1.24-.584c-.51 0-.966.203-1.371.61v3.029c.405.406.862.61 1.371.61s.922-.198 1.24-.593c.318-.395.477-.905.477-1.532zM83.23 6.522h2.828v4.283c.659-.452 1.336-.679 2.03-.679.579 0 1.11.113 1.597.34.485.226.902.54 1.249.94.347.4.616.88.807 1.436.19.558.286 1.173.286 1.846s-.095 1.288-.286 1.845a4.283 4.283 0 01-.807 1.437c-.347.4-.764.714-1.25.94a3.732 3.732 0 01-1.596.34c-.694 0-1.371-.227-2.03-.68v.47H83.23z" opacity=".3"/></svg>